<?xml version="1.0" encoding="UTF-8" standalone="no"?>
<svg
   xmlns:dc="http://purl.org/dc/elements/1.1/"
   xmlns:cc="http://creativecommons.org/ns#"
   xmlns:rdf="http://www.w3.org/1999/02/22-rdf-syntax-ns#"
   xmlns:svg="http://www.w3.org/2000/svg"
   xmlns="http://www.w3.org/2000/svg"
   xmlns:sodipodi="http://sodipodi.sourceforge.net/DTD/sodipodi-0.dtd"
   xmlns:inkscape="http://www.inkscape.org/namespaces/inkscape"
   version="1.1"
   id="svg158"
   width="481.55948"
   height="228.19301"
   viewBox="0 0 481.55948 228.19301"
   sodipodi:docname="dont-panic.svg"
   inkscape:version="1.0.1 (3bc2e813f5, 2020-09-07)"
   inkscape:export-xdpi="159.48"
   inkscape:export-ydpi="159.48">
  <metadata
     id="metadata164">
    <rdf:RDF>
      <cc:Work
         rdf:about="">
        <dc:format>image/svg+xml</dc:format>
        <dc:type
           rdf:resource="http://purl.org/dc/dcmitype/StillImage" />
        <dc:title></dc:title>
      </cc:Work>
    </rdf:RDF>
  </metadata>
  <defs
     id="defs162" />
  <sodipodi:namedview
     pagecolor="#000000"
     bordercolor="#666666"
     borderopacity="1"
     objecttolerance="10"
     gridtolerance="10"
     guidetolerance="10"
     inkscape:pageopacity="1"
     inkscape:pageshadow="2"
     inkscape:window-width="1920"
     inkscape:window-height="1047"
     id="namedview160"
     showgrid="false"
     showborder="true"
     inkscape:zoom="1.2057505"
     inkscape:cx="471.85934"
     inkscape:cy="146.08294"
     inkscape:window-x="0"
     inkscape:window-y="0"
     inkscape:window-maximized="1"
     inkscape:current-layer="g166"
     fit-margin-top="10"
     lock-margins="true"
     fit-margin-left="10"
     fit-margin-right="10"
     fit-margin-bottom="10" />
  <g
     inkscape:groupmode="layer"
     inkscape:label="Image"
     id="g166"
     transform="translate(-54.356975,273.20295)">
    <path
       style="fill:#ffffff"
       d="m 255.03087,-56.582776 c -7.90437,-2.135068 -24.65421,-8.973888 -30.01833,-12.256228 l -3.32455,-2.03432 4.32455,-2.45611 c 2.3785,-1.35087 4.45303,-2.58441 4.61006,-2.74121 0.15703,-0.1568 -4.53596,-3.38161 -10.42887,-7.16625 -5.89291,-3.78464 -11.1227,-7.15671 -11.62176,-7.49348 -0.49906,-0.33678 0.46246,-3.03955 2.13671,-6.006145 4.76264,-8.438961 6.40683,-17.284791 5.83291,-31.381541 -1.22878,-30.18221 -13.56372,-50.50763 -35.46896,-58.44554 -8.86087,-3.21095 -10.49872,-4.40677 -22.82591,-16.66555 -13.95568,-13.87822 -18.24493,-17.09171 -23.95677,-17.94825 -8.39001,-1.25816 -20.7501,3.78546 -24.93721,10.17581 -2.59747,3.96423 -0.0713,6.06571 8.32621,6.92653 4.18427,0.42892 8.45623,1.64663 11.4975,3.27732 4.73183,2.53715 14.66064,12.29306 14.66064,14.40534 0,2.7493 7.75345,16.69264 13.5725,24.40797 7.77086,10.3032 8.56492,11.71067 9.51327,16.86224 0.89668,4.87087 -0.62851,8.86557 -4.92852,12.90857 l -3.08908,2.90443 -9.78408,-8.86623 c -15.72803,-14.25257 -38.5972,-37.86164 -50.037921,-51.6568 -5.832003,-7.03221 -10.955153,-12.78584 -11.384763,-12.78584 -0.42962,0 -1.32041,1.8 -1.97955,4 -0.65913,2.2 -1.49165,4 -1.85004,4 -0.35839,0 -3.42789,-4.6125 -6.8211,-10.25 -16.14226,-26.81883 -16.912118,-43.55815 -2.15577,-46.87368 7.07641,-1.58996 20.823015,1.34928 33.833374,7.23412 3.51357,1.58926 6.75451,2.88956 7.20208,2.88956 0.44758,0 3.73603,-2.0428 7.30767,-4.53955 8.30597,-5.80629 21.38738,-11.93355 31.31815,-14.66924 10.86719,-2.99366 36.21135,-3.19958 47.28378,-0.38417 29.26369,7.44093 52.73897,26.31515 66.03569,53.09296 14.16451,28.52542 14.27284,61.52905 0.29601,90.18289 l -3.50368,7.18289 5.66273,9.48925 c 13.52462,22.663696 15.60895,37.946966 6.03107,44.222634 -3.84922,2.5221 -12.96119,2.71762 -21.32804,0.45762 z m 18.46813,-8.606278 c 2.23284,-2.23284 2.48485,-3.12065 1.91603,-6.75 -0.83788,-5.34601 -5.18802,-14.6802 -11.10287,-23.823615 l -4.65141,-7.190331 -4.11968,4.917471 c -5.54306,6.616505 -13.18629,13.759125 -18.92608,17.686465 -2.59716,1.77706 -4.60082,3.63255 -4.45257,4.12331 0.39308,1.30127 14.94713,8.54283 22.59701,11.24343 9.08195,3.20616 15.39634,3.1365 18.73957,-0.20673 z m -19.16191,-76.691716 c 3.85,-3.35664 7.77749,-7.0332 8.72776,-8.17014 3.4354,-4.11022 2.06983,-8.0951 -5.59167,-16.31715 -5.4049,-5.80035 -9.55313,-4.41699 -21.84293,7.28426 -7.4061,7.05143 -7.6869,9.89039 -1.7243,17.43364 6.99287,8.84664 10.05942,8.81203 20.43114,-0.23061 z m -20.7848,-21.95548 c 12.67631,-10.7786 24.10232,-22.0469 24.50815,-24.16986 0.65559,-3.42948 -1.08116,-6.89137 -6.06349,-12.08647 -6.91029,-7.2054 -8.23358,-6.81203 -23.72409,7.05234 -7.11467,6.3678 -13.42708,12.71375 -14.02758,14.10211 -1.72652,3.99178 -0.53142,7.05448 5.02898,12.88779 6.20531,6.50988 8.76001,6.90604 14.27803,2.21409 z m -10.45668,-29.02997 c 17.90251,-15.97825 20.74148,-19.05655 20.74148,-22.49008 0,-2.23781 -1.18777,-4.52251 -4.13352,-7.95094 -4.8253,-5.61595 -8.20076,-7.69472 -11.25129,-6.92909 -2.081,0.5223 -23.04064,18.4591 -28.86519,24.70221 -4.40296,4.71935 -3.80875,8.59644 2.35034,15.33547 7.45624,8.15832 9.28717,7.92748 21.15818,-2.66757 z M 90.226206,-208.30785 c 2.8708,-6.02012 10.272434,-16.98772 14.722404,-21.81537 l 4.14988,-4.50208 -8.3807,-3.86717 c -25.455904,-11.74631 -35.314114,-6.20496 -25.547634,14.36045 3.72042,7.83415 11.21349,19.51396 12.51899,19.51396 0.42764,0 1.56932,-1.66041 2.53706,-3.68979 z m 98.051874,135.748996 c 9.96845,-9.99946 11.08952,-10.83835 13.02959,-9.75 8.87835,4.9806 18.3181,11.2237 17.92712,11.85632 -1.65143,2.67207 -28.29958,8.83448 -38.20301,8.83448 h -3.66058 z m -79.94876,-19.26191 C 89.173306,-113.05808 79.781026,-136.54352 79.871986,-162.97853 c 0.0331,-9.6296 1.7428,-22.46049 3.65378,-27.42128 0.82184,-2.13346 1.2007,-1.84358 5.82935,4.46033 11.846964,16.13477 35.440704,41.62583 54.696904,59.09544 l 6.71493,6.09191 -17.5564,16.81705 c -9.65602,9.249371 -18.1294,16.950806 -18.82974,17.114316 -0.70034,0.16351 -3.42351,-2.08649 -6.05149,-5 z"
       id="path170"
       sodipodi:nodetypes="sscsssssssssssssssscsssssssssssssscsssssscssssssssssssssssssssssssssscsssssssscsssssscsss" />
    <text
       xml:space="preserve"
       style="font-style:normal;font-variant:normal;font-weight:normal;font-stretch:normal;font-size:83.6525px;line-height:1.25;font-family:'04b_19';-inkscape-font-specification:'04b_19, Normal';font-variant-ligatures:normal;font-variant-caps:normal;font-variant-numeric:normal;font-variant-east-asian:normal;fill:#ffffff;fill-opacity:1;stroke:none;stroke-width:2.09131"
       x="316.78537"
       y="-187.05925"
       id="text174"><tspan
         sodipodi:role="line"
         x="316.78537"
         y="-187.05925"
         id="tspan184"
         style="fill:#ffffff;stroke-width:2.09131">don't</tspan><tspan
         sodipodi:role="line"
         x="316.78537"
         y="-82.493629"
         style="fill:#ffffff;stroke-width:2.09131"
         id="tspan242">panic</tspan></text>
  </g>
</svg>
