<?xml version="1.0" encoding="UTF-8"?>
<svg xmlns="http://www.w3.org/2000/svg" id="a" width="48" height="48" version="1.1" viewBox="0 0 12.7 12.7">
  <g id="b" transform="translate(0,-284.3)">
    <g id="c" transform="matrix(.33591 0 0 .33591 -12.382 267.63)">
      <g id="d">
        <path id="e" d="m38.798 67.76c0.16655-0.36884 0.13639-0.31744 0.78203-0.85588s2.13-0.94191 3.2923-2.0634 2.6412-3.4107 3.1557-5.1168c0.51449-1.706 0.22218-3.5224 0.15452-4.6788-0.06765-1.1564 0.82562-1.4991 0.82562-1.4991s0.39807-0.27578 1.137-0.14823c0.73894 0.12756 0.96948 0.28462 1.8446 0.86531 0.8751 0.58068 2.1854 1.188 3.3079 1.4782 1.1225 0.29019 2.5572 0.35641 3.7706 0.21371s2.2616-0.78078 3.1435-1.2187c0.88195-0.4379 1.8228-1.2698 2.5131-1.4337 0.69031-0.16388 1.1315 0.0049 1.5602 0.21547 0.4287 0.21055 0.58639 0.381 0.82155 1.0126 0.23516 0.63165-0.02661 2.021 0.08822 3.1872s0.37648 2.5832 0.90806 3.7466 1.4626 2.1655 2.2986 2.9814 1.8155 1.4402 2.8207 1.929 1.1517 0.5548 1.4891 1.0236c0.33739 0.46884 0.41624 1.0274 0.186 1.6327-0.23025 0.60535-1.9239 1.3796-2.7725 1.8917-0.84866 0.51214-2.4034 1.8925-3.3778 3.3637-0.97437 1.4712-1.2709 3.701-1.4377 5.1008-0.16684 1.3998 0.41985 2.3275 0.02475 3.0778-0.39509 0.75026-1.032 1.0483-1.7873 1.1132s-1.6942-0.72885-2.2072-1.0413c-0.51304-0.31241-1.3535-0.79254-2.0928-0.96544-0.73928-0.1729-1.7546-0.25-2.1638-0.55844-0.4092-0.30843-0.26974-0.53758-0.42563-0.72475s-0.27842-0.33191-0.46973-0.40616-0.37465-0.08732-0.55733-0.02498-0.35439 0.16138-0.4765 0.35499c-0.12211 0.1936 0.0109 0.38462-0.29873 0.67729s-0.85168 0.16943-1.5996 0.44295-2.0844 0.88026-2.833 1.3029c-0.74857 0.42264-1.083 1-1.687 1.1465s-1.1856-0.0329-1.6588-0.37621c-0.47319-0.3433-0.69523-1.5039-0.69454-1.8484 6.87e-4 -0.34444 0.15832-2.1253-0.13233-3.4795-0.29066-1.3542-0.77801-2.7839-1.4721-3.8512-0.69412-1.0673-1.6371-1.8297-2.4927-2.4801-0.85555-0.65035-1.9588-0.95914-2.5482-1.4493-0.5894-0.49021-0.93222-0.80777-1.0752-1.2759s-0.03019-0.8929 0.13636-1.2617z" fill="#232629" stroke-width=".051193px"/>
        <ellipse id="f" cx="47.8" cy="54.944" rx="1.7186" ry="1.6918" fill="#eee489" stroke-width=".088711"/>
        <ellipse id="g" cx="47.774" cy="54.905" rx=".77659" ry=".76448" fill="#eff0f1"/>
        <ellipse id="h" cx="63.398" cy="54.857" rx="1.7186" ry="1.6918" fill="#eee489" stroke-width=".088711"/>
        <ellipse id="i" cx="63.371" cy="54.819" rx=".77659" ry=".76448" fill="#eff0f1"/>
        <ellipse id="j" cx="71.374" cy="68.31" rx="1.7186" ry="1.6918" fill="#eee489" stroke-width=".088711"/>
        <ellipse id="k" cx="71.348" cy="68.272" rx=".77659" ry=".76448" fill="#eff0f1"/>
        <ellipse id="l" cx="63.748" cy="81.92" rx="1.7186" ry="1.6918" fill="#eee489" stroke-width=".088711"/>
        <ellipse id="m" cx="63.722" cy="81.882" rx=".77659" ry=".76448" fill="#eff0f1"/>
        <ellipse id="n" cx="48.2" cy="82.192" rx="1.7186" ry="1.6918" fill="#eee489" stroke-width=".088711"/>
        <ellipse id="o" cx="48.173" cy="82.154" rx=".77659" ry=".76448" fill="#eff0f1"/>
        <ellipse id="p" cx="40.155" cy="68.515" rx="1.7186" ry="1.6918" fill="#eee489" stroke-width=".088711"/>
        <g fill="#eff0f1">
          <ellipse id="q" cx="40.128" cy="68.477" rx=".77659" ry=".76448"/>
          <rect id="r" x="54.657" y="55.959" width="2.4755" height="2.5545" stroke-width=".051193"/>
          <g id="s" transform="matrix(.19368 0 0 .19329 34.504 31.838)">
            <rect id="t" x="110.41" y="152.09" width="1.0636" height="4.4517"/>
            <rect id="u" x="110.41" y="160.82" width="1.0636" height="4.4517"/>
            <rect id="v" x="110.41" y="169.8" width="1.0636" height="4.4517"/>
            <rect id="w" x="110.41" y="178.53" width="1.0636" height="4.4517"/>
            <rect id="x" x="110.41" y="187.33" width="1.0636" height="4.4517"/>
            <rect id="y" x="119.02" y="152.09" width="1.0636" height="4.4517"/>
            <rect id="z" x="119.02" y="160.82" width="1.0636" height="4.4517"/>
            <rect id="aa" x="119.02" y="169.8" width="1.0636" height="4.4517"/>
            <rect id="ab" x="119.02" y="178.53" width="1.0636" height="4.4517"/>
            <rect id="ac" x="119.02" y="187.33" width="1.0636" height="4.4517"/>
            <rect id="ad" x="101.41" y="152.09" width="1.0636" height="4.4517"/>
            <rect id="ae" x="101.41" y="160.82" width="1.0636" height="4.4517"/>
            <rect id="af" x="101.41" y="169.8" width="1.0636" height="4.4517"/>
            <rect id="ag" x="101.41" y="178.53" width="1.0636" height="4.4517"/>
            <rect id="ah" x="101.41" y="187.33" width="1.0636" height="4.4517"/>
            <rect id="ai" x="127.83" y="152.09" width="1.0636" height="4.4517"/>
            <rect id="aj" x="127.83" y="160.82" width="1.0636" height="4.4517"/>
            <rect id="ak" x="127.83" y="169.8" width="1.0636" height="4.4517"/>
            <rect id="al" x="127.83" y="178.53" width="1.0636" height="4.4517"/>
            <rect id="am" x="127.83" y="187.33" width="1.0636" height="4.4517"/>
            <rect id="an" x="92.604" y="152.09" width="1.0636" height="4.4517"/>
            <rect id="ao" x="92.604" y="160.82" width="1.0636" height="4.4517"/>
            <rect id="ap" x="92.604" y="169.8" width="1.0636" height="4.4517"/>
            <rect id="aq" x="92.604" y="178.53" width="1.0636" height="4.4517"/>
            <rect id="ar" x="92.604" y="187.33" width="1.0636" height="4.4517"/>
          </g>
        </g>
      </g>
    </g>
  </g>
</svg>
