<?xml version="1.0" encoding="UTF-8" standalone="no"?>
<svg
   xmlns:dc="http://purl.org/dc/elements/1.1/"
   xmlns:cc="http://creativecommons.org/ns#"
   xmlns:rdf="http://www.w3.org/1999/02/22-rdf-syntax-ns#"
   xmlns:svg="http://www.w3.org/2000/svg"
   xmlns="http://www.w3.org/2000/svg"
   xmlns:xlink="http://www.w3.org/1999/xlink"
   version="1.1"
   id="svg2"
   viewBox="0 0 360 60"
   height="60"
   width="360">
  <defs
     id="defs4" />
  <metadata
     id="metadata7">
    <rdf:RDF>
      <cc:Work
         rdf:about="">
        <dc:format>image/svg+xml</dc:format>
        <dc:type
           rdf:resource="http://purl.org/dc/dcmitype/StillImage" />
        <dc:title></dc:title>
      </cc:Work>
    </rdf:RDF>
  </metadata>
  <g
     transform="translate(-265.35713,-602.30786)"
     id="g5426-6-7">
    <g
       transform="translate(65.962793,46.887011)"
       id="g5892-2-6-5">
      <path
         id="path5894-4-0-6"
         d="m 214.35635,593.74488 c 0,0 62.02172,1.15107 73.74858,16.76021 1.23222,1.70616 6.4913,1.96986 6.4913,1.96986"
         style="fill:none;fill-rule:evenodd;stroke:#000000;stroke-width:2.5;stroke-linecap:round;stroke-linejoin:miter;stroke-miterlimit:4;stroke-dasharray:none;stroke-opacity:1" />
      <path
         style="fill:none;fill-rule:evenodd;stroke:#000000;stroke-width:1.5;stroke-linecap:round;stroke-linejoin:miter;stroke-miterlimit:4;stroke-dasharray:none;stroke-opacity:1"
         d="m 291.20314,611.54774 c -0.71771,-20.57437 -75.17213,-24.26226 -75.17213,-24.26226"
         id="path5896-36-6-6" />
      <path
         id="path5898-2-4-1"
         d="m 293.86867,611.92689 c -0.23924,-27.03377 -75.92376,-30.62233 -75.92376,-30.62233"
         style="fill:none;fill-rule:evenodd;stroke:#000000;stroke-width:1.5;stroke-linecap:round;stroke-linejoin:miter;stroke-miterlimit:4;stroke-dasharray:none;stroke-opacity:1" />
    </g>
    <use
       x="0"
       y="0"
       xlink:href="#g5892-2-6-5"
       id="use5992-1-4-0"
       transform="matrix(-1,0,0,1,721.39224,2.8560018e-7)"
       width="100%"
       height="100%" />
    <rect
       y="644.16772"
       x="358.22089"
       height="5"
       width="5"
       id="rect5118-6-5-0-8-4"
       style="opacity:1;fill:#6bba00;fill-opacity:1;stroke:none;stroke-width:4;stroke-linecap:round;stroke-linejoin:miter;stroke-miterlimit:4;stroke-dasharray:none;stroke-opacity:1" />
    <rect
       y="634.2959"
       x="363.96158"
       height="7.5"
       width="7.5"
       id="rect5118-6-0-6-9"
       style="opacity:1;fill:#2cabb7;fill-opacity:1;stroke:none;stroke-width:4;stroke-linecap:round;stroke-linejoin:miter;stroke-miterlimit:4;stroke-dasharray:none;stroke-opacity:1" />
    <rect
       y="636.01196"
       x="353.56042"
       height="5"
       width="5"
       id="rect5118-6-5-6-5-7"
       style="opacity:1;fill:#000000;fill-opacity:1;stroke:none;stroke-width:4;stroke-linecap:round;stroke-linejoin:miter;stroke-miterlimit:4;stroke-dasharray:none;stroke-opacity:1" />
    <rect
       y="626.60608"
       x="338.79501"
       height="7.5"
       width="7.5"
       id="rect5118-6-1-2-6"
       style="opacity:1;fill:#6bba00;fill-opacity:1;stroke:none;stroke-width:4;stroke-linecap:round;stroke-linejoin:miter;stroke-miterlimit:4;stroke-dasharray:none;stroke-opacity:1" />
    <rect
       y="621.16168"
       x="350.36136"
       height="10"
       width="10"
       id="rect5118-0-4-4"
       style="opacity:1;fill:#2cabb7;fill-opacity:1;stroke:none;stroke-width:4;stroke-linecap:round;stroke-linejoin:miter;stroke-miterlimit:4;stroke-dasharray:none;stroke-opacity:1" />
    <rect
       y="625.99188"
       x="363.58044"
       height="5"
       width="5"
       id="rect5118-6-5-8-3-1"
       style="opacity:1;fill:#000000;fill-opacity:1;stroke:none;stroke-width:4;stroke-linecap:round;stroke-linejoin:miter;stroke-miterlimit:4;stroke-dasharray:none;stroke-opacity:1" />
    <rect
       y="630.88538"
       x="375.93069"
       height="5"
       width="5"
       id="rect5118-6-5-4-1-8"
       style="opacity:1;fill:#5a40c6;fill-opacity:1;stroke:none;stroke-width:4;stroke-linecap:round;stroke-linejoin:miter;stroke-miterlimit:4;stroke-dasharray:none;stroke-opacity:1" />
    <rect
       y="620.08142"
       x="371.65137"
       height="7.5"
       width="7.5"
       id="rect5118-6-9-8-4"
       style="opacity:1;fill:#000000;fill-opacity:1;stroke:none;stroke-width:4;stroke-linecap:round;stroke-linejoin:miter;stroke-miterlimit:4;stroke-dasharray:none;stroke-opacity:1" />
    <rect
       y="627.85608"
       x="385.71771"
       height="5"
       width="5"
       id="rect5118-6-5-2-1-2"
       style="opacity:1;fill:#2cabb7;fill-opacity:1;stroke:none;stroke-width:4;stroke-linecap:round;stroke-linejoin:miter;stroke-miterlimit:4;stroke-dasharray:none;stroke-opacity:1" />
    <rect
       y="610.67554"
       x="294.90167"
       height="10"
       width="10"
       id="rect5118-04-7-7"
       style="opacity:1;fill:#000000;fill-opacity:1;stroke:none;stroke-width:4;stroke-linecap:round;stroke-linejoin:miter;stroke-miterlimit:4;stroke-dasharray:none;stroke-opacity:1" />
    <rect
       y="620.86536"
       x="310.91705"
       height="5"
       width="5"
       id="rect5118-6-5-66-8-2"
       style="opacity:1;fill:#2cabb7;fill-opacity:1;stroke:none;stroke-width:4;stroke-linecap:round;stroke-linejoin:miter;stroke-miterlimit:4;stroke-dasharray:none;stroke-opacity:1" />
    <rect
       y="617.37"
       x="330.72406"
       height="5"
       width="5"
       id="rect5118-6-5-9-7-1"
       style="opacity:1;fill:#000000;fill-opacity:1;stroke:none;stroke-width:4;stroke-linecap:round;stroke-linejoin:miter;stroke-miterlimit:4;stroke-dasharray:none;stroke-opacity:1" />
    <rect
       y="604.23578"
       x="319.9201"
       height="7.5"
       width="7.5"
       id="rect5118-6-3-5-4"
       style="opacity:1;fill:#000000;fill-opacity:1;stroke:none;stroke-width:4;stroke-linecap:round;stroke-linejoin:miter;stroke-miterlimit:4;stroke-dasharray:none;stroke-opacity:1" />
    <rect
       y="604.00275"
       x="343.22247"
       height="7.5"
       width="7.5"
       id="rect5118-6-55-9-1"
       style="opacity:1;fill:#2cabb7;fill-opacity:1;stroke:none;stroke-width:4;stroke-linecap:round;stroke-linejoin:miter;stroke-miterlimit:4;stroke-dasharray:none;stroke-opacity:1" />
    <rect
       y="608.74811"
       x="361.01715"
       height="5"
       width="5"
       id="rect5118-6-5-86-5-6"
       style="opacity:1;fill:#000000;fill-opacity:1;stroke:none;stroke-width:4;stroke-linecap:round;stroke-linejoin:miter;stroke-miterlimit:4;stroke-dasharray:none;stroke-opacity:1" />
    <rect
       y="608.8114"
       x="399.06329"
       height="10"
       width="10"
       id="rect5118-8-1-5"
       style="opacity:1;fill:#000000;fill-opacity:1;stroke:none;stroke-width:4;stroke-linecap:round;stroke-linejoin:miter;stroke-miterlimit:4;stroke-dasharray:none;stroke-opacity:1" />
    <rect
       y="611.31134"
       x="375.93069"
       height="5"
       width="5"
       id="rect5118-6-5-1-5-8"
       style="opacity:1;fill:#6bba00;fill-opacity:1;stroke:none;stroke-width:4;stroke-linecap:round;stroke-linejoin:miter;stroke-miterlimit:4;stroke-dasharray:none;stroke-opacity:1" />
    <rect
       y="622.41132"
       x="410.18518"
       height="5"
       width="5"
       id="rect5118-6-5-84-7-5"
       style="opacity:1;fill:#000000;fill-opacity:1;stroke:none;stroke-width:4;stroke-linecap:round;stroke-linejoin:miter;stroke-miterlimit:4;stroke-dasharray:none;stroke-opacity:1" />
    <rect
       y="612.70947"
       x="421.37036"
       height="5"
       width="5"
       id="rect5118-6-5-62-2-9"
       style="opacity:1;fill:#5a40c6;fill-opacity:1;stroke:none;stroke-width:4;stroke-linecap:round;stroke-linejoin:miter;stroke-miterlimit:4;stroke-dasharray:none;stroke-opacity:1" />
    <rect
       y="616.58606"
       x="339.72711"
       height="7.5"
       width="7.5"
       id="rect5118-6-8-6-4"
       style="opacity:1;fill:#5a40c6;fill-opacity:1;stroke:none;stroke-width:4;stroke-linecap:round;stroke-linejoin:miter;stroke-miterlimit:4;stroke-dasharray:none;stroke-opacity:1" />
    <rect
       y="608.43018"
       x="387.26398"
       height="7.5"
       width="7.5"
       id="rect5118-6-80-0-7"
       style="opacity:1;fill:#2cabb7;fill-opacity:1;stroke:none;stroke-width:4;stroke-linecap:round;stroke-linejoin:miter;stroke-miterlimit:4;stroke-dasharray:none;stroke-opacity:1" />
  </g>
  <g
     transform="translate(-54.263373,-917.32002)"
     id="text5950-5-5-8"
     style="font-style:normal;font-variant:normal;font-weight:600;font-stretch:normal;font-size:60px;line-height:89.99999762%;font-family:Titillium;-inkscape-font-specification:'Titillium Semi-Bold';text-align:start;letter-spacing:0px;word-spacing:0px;writing-mode:lr-tb;text-anchor:start;fill:#000000;fill-opacity:1;stroke:none;stroke-width:1px;stroke-linecap:butt;stroke-linejoin:miter;stroke-opacity:1">
    <path
       id="path3561"
       style="font-style:normal;font-variant:normal;font-weight:600;font-stretch:normal;font-size:60px;font-family:Titillium;-inkscape-font-specification:'Titillium Semi-Bold'"
       d="m 255.90725,967.90002 6.66,0 0,-15.6 15.66,0 0,-5.82 -15.66,0 0,-13.86 18.84,0 0,-5.82 -25.5,0 0,41.1 z" />
    <path
       id="path3563"
       style="font-style:normal;font-variant:normal;font-weight:600;font-stretch:normal;font-size:60px;font-family:Titillium;-inkscape-font-specification:'Titillium Semi-Bold'"
       d="m 311.91069,927.52002 c 0,0 -7.8,-1.44 -13.02,-1.44 -8.22,0 -13.68,3.42 -13.68,11.7 0,7.14 3.84,9.84 12.72,12.12 6.3,1.5 8.16,2.7 8.16,6.18 0,4.32 -2.34,6.6 -7.44,6.6 -4.26,0 -12.36,-1.08 -12.36,-1.08 l -0.66,5.34 c 0,0 8.1,1.62 13.44,1.62 8.1,0 13.74,-3.9 13.74,-12.9 0,-7.02 -3.12,-9.3 -11.76,-11.7 -7.02,-1.92 -9.18,-2.82 -9.18,-6.66 0,-3.54 2.58,-5.34 7.62,-5.34 3.48,0 11.88,0.96 11.88,0.96 l 0.54,-5.4 z" />
    <path
       id="path3565"
       style="font-style:normal;font-variant:normal;font-weight:600;font-stretch:normal;font-size:60px;font-family:Titillium;-inkscape-font-specification:'Titillium Semi-Bold'"
       d="m 320.00881,967.90002 6.66,0 0,-15.6 15.66,0 0,-5.82 -15.66,0 0,-13.86 18.84,0 0,-5.82 -25.5,0 0,41.1 z" />
    <path
       id="path3567"
       style="font-style:normal;font-variant:normal;font-weight:600;font-stretch:normal;font-size:60px;font-family:Titillium;-inkscape-font-specification:'Titillium Semi-Bold'"
       d="m 348.46663,926.80002 8.04,41.1 10.8,0 7.02,-32.94 7.08,32.94 10.74,0 8.1,-41.1 -7.02,0 -5.88,35.34 -1.32,0 -7.8,-35.22 -7.8,0 -7.8,35.22 -1.26,0 -5.88,-35.34 -7.02,0 z" />
  </g>
</svg>
