<?xml version="1.0" encoding="UTF-8" standalone="no"?>
<svg
   xmlns:dc="http://purl.org/dc/elements/1.1/"
   xmlns:cc="http://creativecommons.org/ns#"
   xmlns:rdf="http://www.w3.org/1999/02/22-rdf-syntax-ns#"
   xmlns:svg="http://www.w3.org/2000/svg"
   xmlns="http://www.w3.org/2000/svg"
   xmlns:xlink="http://www.w3.org/1999/xlink"
   xmlns:sodipodi="http://sodipodi.sourceforge.net/DTD/sodipodi-0.dtd"
   xmlns:inkscape="http://www.inkscape.org/namespaces/inkscape"
   width="50.799999mm"
   height="50.799999mm"
   viewBox="0 0 180 180"
   id="svg2"
   version="1.1"
   inkscape:version="0.48.5 r10040"
   sodipodi:docname="sitelogo.svg">
  <sodipodi:namedview
     pagecolor="#ffffff"
     bordercolor="#666666"
     borderopacity="1"
     objecttolerance="10"
     gridtolerance="10"
     guidetolerance="10"
     inkscape:pageopacity="0"
     inkscape:pageshadow="2"
     inkscape:window-width="640"
     inkscape:window-height="480"
     id="namedview38"
     showgrid="false"
     showguides="true"
     inkscape:guide-bbox="true"
     inkscape:zoom="1.8541911"
     inkscape:cx="86.202317"
     inkscape:cy="45.641151"
     inkscape:window-x="0"
     inkscape:window-y="0"
     inkscape:window-maximized="0"
     inkscape:current-layer="svg2">
    <sodipodi:guide
       orientation="1,0"
       position="161.2563,35.055718"
       id="guide3024" />
    <sodipodi:guide
       orientation="1,0"
       position="17.797518,-11.865012"
       id="guide3026" />
  </sodipodi:namedview>
  <defs
     id="defs4" />
  <metadata
     id="metadata7">
    <rdf:RDF>
      <cc:Work
         rdf:about="">
        <dc:format>image/svg+xml</dc:format>
        <dc:type
           rdf:resource="http://purl.org/dc/dcmitype/StillImage" />
        <dc:title />
      </cc:Work>
    </rdf:RDF>
  </metadata>
  <g
     transform="translate(-238.07693,-827.21405)"
     id="g4388">
    <g
       transform="translate(-32.61918,261.86531)"
       id="g5426-6-7">
      <g
         transform="translate(65.962793,46.887011)"
         id="g5892-2-6-5">
        <path
           id="path5894-4-0-6"
           d="m 214.35635,593.74488 c 0,0 62.02172,1.15107 73.74858,16.76021 1.23222,1.70616 6.4913,1.96986 6.4913,1.96986"
           style="fill:none;fill-rule:evenodd;stroke:#000000;stroke-width:2.5;stroke-linecap:round;stroke-linejoin:miter;stroke-miterlimit:4;stroke-dasharray:none;stroke-opacity:1" />
        <path
           style="fill:none;fill-rule:evenodd;stroke:#000000;stroke-width:1.5;stroke-linecap:round;stroke-linejoin:miter;stroke-miterlimit:4;stroke-dasharray:none;stroke-opacity:1"
           d="m 291.20314,611.54774 c -0.71771,-20.57437 -75.17213,-24.26226 -75.17213,-24.26226"
           id="path5896-36-6-6" />
        <path
           id="path5898-2-4-1"
           d="m 293.86867,611.92689 c -0.23924,-27.03377 -75.92376,-30.62233 -75.92376,-30.62233"
           style="fill:none;fill-rule:evenodd;stroke:#000000;stroke-width:1.5;stroke-linecap:round;stroke-linejoin:miter;stroke-miterlimit:4;stroke-dasharray:none;stroke-opacity:1" />
      </g>
      <use
         x="0"
         y="0"
         xlink:href="#g5892-2-6-5"
         id="use5992-1-4-0"
         transform="matrix(-1,0,0,1,721.39224,2.8560018e-7)"
         width="100%"
         height="100%" />
      <rect
         y="644.16772"
         x="358.22089"
         height="5"
         width="5"
         id="rect5118-6-5-0-8-4"
         style="opacity:1;fill:#6bba00;fill-opacity:1;stroke:none;stroke-width:4;stroke-linecap:round;stroke-linejoin:miter;stroke-miterlimit:4;stroke-dasharray:none;stroke-opacity:1" />
      <rect
         y="634.2959"
         x="363.96158"
         height="7.5"
         width="7.5"
         id="rect5118-6-0-6-9"
         style="opacity:1;fill:#2cabb7;fill-opacity:1;stroke:none;stroke-width:4;stroke-linecap:round;stroke-linejoin:miter;stroke-miterlimit:4;stroke-dasharray:none;stroke-opacity:1" />
      <rect
         y="636.01196"
         x="353.56042"
         height="5"
         width="5"
         id="rect5118-6-5-6-5-7"
         style="opacity:1;fill:#000000;fill-opacity:1;stroke:none;stroke-width:4;stroke-linecap:round;stroke-linejoin:miter;stroke-miterlimit:4;stroke-dasharray:none;stroke-opacity:1" />
      <rect
         y="626.60608"
         x="338.79501"
         height="7.5"
         width="7.5"
         id="rect5118-6-1-2-6"
         style="opacity:1;fill:#6bba00;fill-opacity:1;stroke:none;stroke-width:4;stroke-linecap:round;stroke-linejoin:miter;stroke-miterlimit:4;stroke-dasharray:none;stroke-opacity:1" />
      <rect
         y="621.16168"
         x="350.36136"
         height="10"
         width="10"
         id="rect5118-0-4-4"
         style="opacity:1;fill:#2cabb7;fill-opacity:1;stroke:none;stroke-width:4;stroke-linecap:round;stroke-linejoin:miter;stroke-miterlimit:4;stroke-dasharray:none;stroke-opacity:1" />
      <rect
         y="625.99188"
         x="363.58044"
         height="5"
         width="5"
         id="rect5118-6-5-8-3-1"
         style="opacity:1;fill:#000000;fill-opacity:1;stroke:none;stroke-width:4;stroke-linecap:round;stroke-linejoin:miter;stroke-miterlimit:4;stroke-dasharray:none;stroke-opacity:1" />
      <rect
         y="630.88538"
         x="375.93069"
         height="5"
         width="5"
         id="rect5118-6-5-4-1-8"
         style="opacity:1;fill:#5a40c6;fill-opacity:1;stroke:none;stroke-width:4;stroke-linecap:round;stroke-linejoin:miter;stroke-miterlimit:4;stroke-dasharray:none;stroke-opacity:1" />
      <rect
         y="620.08142"
         x="371.65137"
         height="7.5"
         width="7.5"
         id="rect5118-6-9-8-4"
         style="opacity:1;fill:#000000;fill-opacity:1;stroke:none;stroke-width:4;stroke-linecap:round;stroke-linejoin:miter;stroke-miterlimit:4;stroke-dasharray:none;stroke-opacity:1" />
      <rect
         y="627.85608"
         x="385.71771"
         height="5"
         width="5"
         id="rect5118-6-5-2-1-2"
         style="opacity:1;fill:#2cabb7;fill-opacity:1;stroke:none;stroke-width:4;stroke-linecap:round;stroke-linejoin:miter;stroke-miterlimit:4;stroke-dasharray:none;stroke-opacity:1" />
      <rect
         y="610.67554"
         x="294.90167"
         height="10"
         width="10"
         id="rect5118-04-7-7"
         style="opacity:1;fill:#000000;fill-opacity:1;stroke:none;stroke-width:4;stroke-linecap:round;stroke-linejoin:miter;stroke-miterlimit:4;stroke-dasharray:none;stroke-opacity:1" />
      <rect
         y="620.86536"
         x="310.91705"
         height="5"
         width="5"
         id="rect5118-6-5-66-8-2"
         style="opacity:1;fill:#2cabb7;fill-opacity:1;stroke:none;stroke-width:4;stroke-linecap:round;stroke-linejoin:miter;stroke-miterlimit:4;stroke-dasharray:none;stroke-opacity:1" />
      <rect
         y="617.37"
         x="330.72406"
         height="5"
         width="5"
         id="rect5118-6-5-9-7-1"
         style="opacity:1;fill:#000000;fill-opacity:1;stroke:none;stroke-width:4;stroke-linecap:round;stroke-linejoin:miter;stroke-miterlimit:4;stroke-dasharray:none;stroke-opacity:1" />
      <rect
         y="604.23578"
         x="319.9201"
         height="7.5"
         width="7.5"
         id="rect5118-6-3-5-4"
         style="opacity:1;fill:#000000;fill-opacity:1;stroke:none;stroke-width:4;stroke-linecap:round;stroke-linejoin:miter;stroke-miterlimit:4;stroke-dasharray:none;stroke-opacity:1" />
      <rect
         y="604.00275"
         x="343.22247"
         height="7.5"
         width="7.5"
         id="rect5118-6-55-9-1"
         style="opacity:1;fill:#2cabb7;fill-opacity:1;stroke:none;stroke-width:4;stroke-linecap:round;stroke-linejoin:miter;stroke-miterlimit:4;stroke-dasharray:none;stroke-opacity:1" />
      <rect
         y="608.74811"
         x="361.01715"
         height="5"
         width="5"
         id="rect5118-6-5-86-5-6"
         style="opacity:1;fill:#000000;fill-opacity:1;stroke:none;stroke-width:4;stroke-linecap:round;stroke-linejoin:miter;stroke-miterlimit:4;stroke-dasharray:none;stroke-opacity:1" />
      <rect
         y="608.8114"
         x="399.06329"
         height="10"
         width="10"
         id="rect5118-8-1-5"
         style="opacity:1;fill:#000000;fill-opacity:1;stroke:none;stroke-width:4;stroke-linecap:round;stroke-linejoin:miter;stroke-miterlimit:4;stroke-dasharray:none;stroke-opacity:1" />
      <rect
         y="611.31134"
         x="375.93069"
         height="5"
         width="5"
         id="rect5118-6-5-1-5-8"
         style="opacity:1;fill:#6bba00;fill-opacity:1;stroke:none;stroke-width:4;stroke-linecap:round;stroke-linejoin:miter;stroke-miterlimit:4;stroke-dasharray:none;stroke-opacity:1" />
      <rect
         y="622.41132"
         x="410.18518"
         height="5"
         width="5"
         id="rect5118-6-5-84-7-5"
         style="opacity:1;fill:#000000;fill-opacity:1;stroke:none;stroke-width:4;stroke-linecap:round;stroke-linejoin:miter;stroke-miterlimit:4;stroke-dasharray:none;stroke-opacity:1" />
      <rect
         y="612.70947"
         x="421.37036"
         height="5"
         width="5"
         id="rect5118-6-5-62-2-9"
         style="opacity:1;fill:#5a40c6;fill-opacity:1;stroke:none;stroke-width:4;stroke-linecap:round;stroke-linejoin:miter;stroke-miterlimit:4;stroke-dasharray:none;stroke-opacity:1" />
      <rect
         y="616.58606"
         x="339.72711"
         height="7.5"
         width="7.5"
         id="rect5118-6-8-6-4"
         style="opacity:1;fill:#5a40c6;fill-opacity:1;stroke:none;stroke-width:4;stroke-linecap:round;stroke-linejoin:miter;stroke-miterlimit:4;stroke-dasharray:none;stroke-opacity:1" />
      <rect
         y="608.43018"
         x="387.26398"
         height="7.5"
         width="7.5"
         id="rect5118-6-80-0-7"
         style="opacity:1;fill:#2cabb7;fill-opacity:1;stroke:none;stroke-width:4;stroke-linecap:round;stroke-linejoin:miter;stroke-miterlimit:4;stroke-dasharray:none;stroke-opacity:1" />
    </g>
    <g
       id="text5950-5-5-8"
       style="font-style:normal;font-variant:normal;font-weight:600;font-stretch:normal;font-size:60px;line-height:89.99999762%;font-family:Titillium;-inkscape-font-specification:'Titillium Semi-Bold';text-align:start;letter-spacing:0px;word-spacing:0px;writing-mode:lr-tb;text-anchor:start;fill:#000000;fill-opacity:1;stroke:none;stroke-width:1px;stroke-linecap:butt;stroke-linejoin:miter;stroke-opacity:1">
      <path
         id="path3561"
         style="font-style:normal;font-variant:normal;font-weight:600;font-stretch:normal;font-size:60px;font-family:Titillium;-inkscape-font-specification:'Titillium Semi-Bold'"
         d="m 255.90725,967.90002 6.66,0 0,-15.6 15.66,0 0,-5.82 -15.66,0 0,-13.86 18.84,0 0,-5.82 -25.5,0 0,41.1 z" />
      <path
         id="path3563"
         style="font-style:normal;font-variant:normal;font-weight:600;font-stretch:normal;font-size:60px;font-family:Titillium;-inkscape-font-specification:'Titillium Semi-Bold'"
         d="m 311.91069,927.52002 c 0,0 -7.8,-1.44 -13.02,-1.44 -8.22,0 -13.68,3.42 -13.68,11.7 0,7.14 3.84,9.84 12.72,12.12 6.3,1.5 8.16,2.7 8.16,6.18 0,4.32 -2.34,6.6 -7.44,6.6 -4.26,0 -12.36,-1.08 -12.36,-1.08 l -0.66,5.34 c 0,0 8.1,1.62 13.44,1.62 8.1,0 13.74,-3.9 13.74,-12.9 0,-7.02 -3.12,-9.3 -11.76,-11.7 -7.02,-1.92 -9.18,-2.82 -9.18,-6.66 0,-3.54 2.58,-5.34 7.62,-5.34 3.48,0 11.88,0.96 11.88,0.96 l 0.54,-5.4 z" />
      <path
         id="path3565"
         style="font-style:normal;font-variant:normal;font-weight:600;font-stretch:normal;font-size:60px;font-family:Titillium;-inkscape-font-specification:'Titillium Semi-Bold'"
         d="m 320.00881,967.90002 6.66,0 0,-15.6 15.66,0 0,-5.82 -15.66,0 0,-13.86 18.84,0 0,-5.82 -25.5,0 0,41.1 z" />
      <path
         id="path3567"
         style="font-style:normal;font-variant:normal;font-weight:600;font-stretch:normal;font-size:60px;font-family:Titillium;-inkscape-font-specification:'Titillium Semi-Bold'"
         d="m 348.46663,926.80002 8.04,41.1 10.8,0 7.02,-32.94 7.08,32.94 10.74,0 8.1,-41.1 -7.02,0 -5.88,35.34 -1.32,0 -7.8,-35.22 -7.8,0 -7.8,35.22 -1.26,0 -5.88,-35.34 -7.02,0 z" />
    </g>
  </g>
  <g
     style="font-size:29.26678467px;font-style:normal;font-variant:normal;font-weight:normal;font-stretch:normal;line-height:125%;letter-spacing:2.16574216px;word-spacing:0px;fill:#000000;fill-opacity:1;stroke:none;font-family:Titillium;-inkscape-font-specification:Titillium"
     id="text3014">
    <path
       d="m 20.081127,166.70049 0,-14.16513 -2.253543,0 0,14.10659 c 0,4.65342 2.546215,6.4387 6.994762,6.4387 4.624147,0 7.170362,-1.81455 7.170362,-6.4387 l 0,-14.10659 -2.224276,0 0,14.16513 c 0,3.16081 -1.785277,4.39002 -4.946086,4.39002 -2.985209,0 -4.741219,-1.22921 -4.741219,-4.39002"
       style=""
       id="path3029" />
    <path
       d="m 40.817559,172.78798 0,-11.88232 c 0,0 2.01941,-1.08287 4.126617,-1.08287 2.721808,0 3.160812,1.43408 3.160812,5.29729 l 0,7.6679 2.165743,0 0,-7.72643 c 0,-5.20948 -0.907275,-7.19963 -4.946087,-7.19963 -2.16574,0 -4.536352,1.317 -4.536352,1.317 l 0,-1.02433 -2.165742,0 0,14.63339 2.195009,0"
       style=""
       id="path3031" />
    <path
       d="m 56.507756,172.78798 2.195009,0 0,-14.63339 -2.195009,0 0,14.63339 m 0,-17.94054 2.195009,0 0,-2.54621 -2.195009,0 0,2.54621"
       style=""
       id="path3033" />
    <path
       d="m 73.583553,165.76395 8.867836,0 0,-2.04867 -8.867836,0 0,2.04867"
       style=""
       id="path3035" />
    <path
       d="m 109.23644,152.79877 c 0,0 -3.71689,-0.58534 -6.11676,-0.58534 -3.951011,0 -6.526492,1.52188 -6.526492,5.44362 0,3.86321 2.107212,4.85829 6.292362,5.76556 3.30714,0.64387 4.50708,1.28774 4.50708,3.57055 0,2.8096 -1.46334,4.06808 -4.33148,4.06808 -2.07794,0 -6.058227,-0.5268 -6.058227,-0.5268 l -0.234134,1.87307 c 0,0 4.009551,0.64387 6.409421,0.64387 4.00955,0 6.46796,-1.75601 6.46796,-6.23382 0,-3.54128 -1.78527,-4.53636 -5.82409,-5.44363 -3.54127,-0.7902 -4.946083,-1.2292 -4.946083,-3.86321 0,-2.28281 1.521873,-3.30715 4.390013,-3.30715 1.69748,0 5.76556,0.49754 5.76556,0.49754 l 0.20487,-1.90234"
       style=""
       id="path3037" />
    <path
       d="m 122.64658,160.05693 0,-1.90234 -4.65342,0 0,-4.47782 -2.16574,0 0,4.47782 -2.07795,0 0,1.90234 2.07795,0 0,7.69716 c 0,4.21441 1.02434,5.35582 4.03881,5.35582 1.02434,0 2.98521,-0.32193 2.98521,-0.32193 l -0.14633,-1.81454 c 0,0 -1.78527,0.1756 -2.60474,0.1756 -1.90234,0 -2.10721,-0.90727 -2.10721,-4.09735 l 0,-6.99476 4.65342,0"
       style=""
       id="path3039" />
    <path
       d="m 127.52132,172.78798 2.19501,0 0,-14.63339 -2.19501,0 0,14.63339 m 0,-17.94054 2.19501,0 0,-2.54621 -2.19501,0 0,2.54621"
       style=""
       id="path3041" />
    <path
       d="m 141.56207,157.86192 c -4.36075,0 -6.0875,2.04868 -6.0875,7.34596 0,5.73629 1.37555,7.87277 6.02896,7.87277 1.34627,0 4.06809,-0.40974 4.06809,-0.40974 l -0.0878,-1.81454 c 0,0 -2.34135,0.2634 -3.45349,0.2634 -3.62907,0 -4.30221,-1.58041 -4.30221,-5.91189 0,-3.92174 0.90727,-5.38509 4.27295,-5.38509 1.11213,0 3.45348,0.2634 3.45348,0.2634 l 0.0878,-1.78527 c 0,0 -2.63401,-0.439 -3.98028,-0.439"
       style=""
       id="path3043" />
    <path
       d="m 153.19698,172.78798 0,-6.70209 2.31208,-0.0878 4.36075,6.78989 2.48768,0 -4.97536,-7.90203 4.77049,-6.73136 -2.48768,0 -4.18515,5.91189 -2.28281,0.11706 0,-12.40911 -2.19501,0 0,21.01355 2.19501,0"
       style=""
       id="path3045" />
  </g>
</svg>
