<?xml version="1.0" encoding="UTF-8" standalone="no"?>
<svg
   xmlns:dc="http://purl.org/dc/elements/1.1/"
   xmlns:cc="http://creativecommons.org/ns#"
   xmlns:rdf="http://www.w3.org/1999/02/22-rdf-syntax-ns#"
   xmlns:svg="http://www.w3.org/2000/svg"
   xmlns="http://www.w3.org/2000/svg"
   xmlns:xlink="http://www.w3.org/1999/xlink"
   xmlns:sodipodi="http://sodipodi.sourceforge.net/DTD/sodipodi-0.dtd"
   xmlns:inkscape="http://www.inkscape.org/namespaces/inkscape"
   version="1.1"
   id="svg2"
   viewBox="0 0 360 60"
   height="60"
   width="360"
   inkscape:version="0.48.5 r10040"
   sodipodi:docname="navlogo.svg">
  <sodipodi:namedview
     pagecolor="#ffffff"
     bordercolor="#666666"
     borderopacity="1"
     objecttolerance="10"
     gridtolerance="10"
     guidetolerance="10"
     inkscape:pageopacity="0"
     inkscape:pageshadow="2"
     inkscape:window-width="1366"
     inkscape:window-height="713"
     id="namedview37"
     showgrid="false"
     showguides="true"
     inkscape:guide-bbox="true"
     inkscape:zoom="10.276619"
     inkscape:cx="283.8033"
     inkscape:cy="-1.8765329"
     inkscape:window-x="-2"
     inkscape:window-y="-3"
     inkscape:window-maximized="1"
     inkscape:current-layer="svg2">
    <sodipodi:guide
       orientation="1,0"
       position="323.4527,-45.540272"
       id="guide3018" />
  </sodipodi:namedview>
  <defs
     id="defs4" />
  <metadata
     id="metadata7">
    <rdf:RDF>
      <cc:Work
         rdf:about="">
        <dc:format>image/svg+xml</dc:format>
        <dc:type
           rdf:resource="http://purl.org/dc/dcmitype/StillImage" />
        <dc:title />
      </cc:Work>
    </rdf:RDF>
  </metadata>
  <g
     transform="translate(-265.35713,-602.30786)"
     id="g5426-6-7">
    <g
       transform="translate(65.962793,46.887011)"
       id="g5892-2-6-5">
      <path
         id="path5894-4-0-6"
         d="m 214.35635,593.74488 c 0,0 62.02172,1.15107 73.74858,16.76021 1.23222,1.70616 6.4913,1.96986 6.4913,1.96986"
         style="fill:none;fill-rule:evenodd;stroke:#000000;stroke-width:2.5;stroke-linecap:round;stroke-linejoin:miter;stroke-miterlimit:4;stroke-dasharray:none;stroke-opacity:1" />
      <path
         style="fill:none;fill-rule:evenodd;stroke:#000000;stroke-width:1.5;stroke-linecap:round;stroke-linejoin:miter;stroke-miterlimit:4;stroke-dasharray:none;stroke-opacity:1"
         d="m 291.20314,611.54774 c -0.71771,-20.57437 -75.17213,-24.26226 -75.17213,-24.26226"
         id="path5896-36-6-6" />
      <path
         id="path5898-2-4-1"
         d="m 293.86867,611.92689 c -0.23924,-27.03377 -75.92376,-30.62233 -75.92376,-30.62233"
         style="fill:none;fill-rule:evenodd;stroke:#000000;stroke-width:1.5;stroke-linecap:round;stroke-linejoin:miter;stroke-miterlimit:4;stroke-dasharray:none;stroke-opacity:1" />
    </g>
    <use
       x="0"
       y="0"
       xlink:href="#g5892-2-6-5"
       id="use5992-1-4-0"
       transform="matrix(-1,0,0,1,721.39224,2.8560018e-7)"
       width="100%"
       height="100%" />
    <rect
       y="644.16772"
       x="358.22089"
       height="5"
       width="5"
       id="rect5118-6-5-0-8-4"
       style="opacity:1;fill:#6bba00;fill-opacity:1;stroke:none;stroke-width:4;stroke-linecap:round;stroke-linejoin:miter;stroke-miterlimit:4;stroke-dasharray:none;stroke-opacity:1" />
    <rect
       y="634.2959"
       x="363.96158"
       height="7.5"
       width="7.5"
       id="rect5118-6-0-6-9"
       style="opacity:1;fill:#2cabb7;fill-opacity:1;stroke:none;stroke-width:4;stroke-linecap:round;stroke-linejoin:miter;stroke-miterlimit:4;stroke-dasharray:none;stroke-opacity:1" />
    <rect
       y="636.01196"
       x="353.56042"
       height="5"
       width="5"
       id="rect5118-6-5-6-5-7"
       style="opacity:1;fill:#000000;fill-opacity:1;stroke:none;stroke-width:4;stroke-linecap:round;stroke-linejoin:miter;stroke-miterlimit:4;stroke-dasharray:none;stroke-opacity:1" />
    <rect
       y="626.60608"
       x="338.79501"
       height="7.5"
       width="7.5"
       id="rect5118-6-1-2-6"
       style="opacity:1;fill:#6bba00;fill-opacity:1;stroke:none;stroke-width:4;stroke-linecap:round;stroke-linejoin:miter;stroke-miterlimit:4;stroke-dasharray:none;stroke-opacity:1" />
    <rect
       y="621.16168"
       x="350.36136"
       height="10"
       width="10"
       id="rect5118-0-4-4"
       style="opacity:1;fill:#2cabb7;fill-opacity:1;stroke:none;stroke-width:4;stroke-linecap:round;stroke-linejoin:miter;stroke-miterlimit:4;stroke-dasharray:none;stroke-opacity:1" />
    <rect
       y="625.99188"
       x="363.58044"
       height="5"
       width="5"
       id="rect5118-6-5-8-3-1"
       style="opacity:1;fill:#000000;fill-opacity:1;stroke:none;stroke-width:4;stroke-linecap:round;stroke-linejoin:miter;stroke-miterlimit:4;stroke-dasharray:none;stroke-opacity:1" />
    <rect
       y="630.88538"
       x="375.93069"
       height="5"
       width="5"
       id="rect5118-6-5-4-1-8"
       style="opacity:1;fill:#5a40c6;fill-opacity:1;stroke:none;stroke-width:4;stroke-linecap:round;stroke-linejoin:miter;stroke-miterlimit:4;stroke-dasharray:none;stroke-opacity:1" />
    <rect
       y="620.08142"
       x="371.65137"
       height="7.5"
       width="7.5"
       id="rect5118-6-9-8-4"
       style="opacity:1;fill:#000000;fill-opacity:1;stroke:none;stroke-width:4;stroke-linecap:round;stroke-linejoin:miter;stroke-miterlimit:4;stroke-dasharray:none;stroke-opacity:1" />
    <rect
       y="627.85608"
       x="385.71771"
       height="5"
       width="5"
       id="rect5118-6-5-2-1-2"
       style="opacity:1;fill:#2cabb7;fill-opacity:1;stroke:none;stroke-width:4;stroke-linecap:round;stroke-linejoin:miter;stroke-miterlimit:4;stroke-dasharray:none;stroke-opacity:1" />
    <rect
       y="610.67554"
       x="294.90167"
       height="10"
       width="10"
       id="rect5118-04-7-7"
       style="opacity:1;fill:#000000;fill-opacity:1;stroke:none;stroke-width:4;stroke-linecap:round;stroke-linejoin:miter;stroke-miterlimit:4;stroke-dasharray:none;stroke-opacity:1" />
    <rect
       y="620.86536"
       x="310.91705"
       height="5"
       width="5"
       id="rect5118-6-5-66-8-2"
       style="opacity:1;fill:#2cabb7;fill-opacity:1;stroke:none;stroke-width:4;stroke-linecap:round;stroke-linejoin:miter;stroke-miterlimit:4;stroke-dasharray:none;stroke-opacity:1" />
    <rect
       y="617.37"
       x="330.72406"
       height="5"
       width="5"
       id="rect5118-6-5-9-7-1"
       style="opacity:1;fill:#000000;fill-opacity:1;stroke:none;stroke-width:4;stroke-linecap:round;stroke-linejoin:miter;stroke-miterlimit:4;stroke-dasharray:none;stroke-opacity:1" />
    <rect
       y="604.23578"
       x="319.9201"
       height="7.5"
       width="7.5"
       id="rect5118-6-3-5-4"
       style="opacity:1;fill:#000000;fill-opacity:1;stroke:none;stroke-width:4;stroke-linecap:round;stroke-linejoin:miter;stroke-miterlimit:4;stroke-dasharray:none;stroke-opacity:1" />
    <rect
       y="604.00275"
       x="343.22247"
       height="7.5"
       width="7.5"
       id="rect5118-6-55-9-1"
       style="opacity:1;fill:#2cabb7;fill-opacity:1;stroke:none;stroke-width:4;stroke-linecap:round;stroke-linejoin:miter;stroke-miterlimit:4;stroke-dasharray:none;stroke-opacity:1" />
    <rect
       y="608.74811"
       x="361.01715"
       height="5"
       width="5"
       id="rect5118-6-5-86-5-6"
       style="opacity:1;fill:#000000;fill-opacity:1;stroke:none;stroke-width:4;stroke-linecap:round;stroke-linejoin:miter;stroke-miterlimit:4;stroke-dasharray:none;stroke-opacity:1" />
    <rect
       y="608.8114"
       x="399.06329"
       height="10"
       width="10"
       id="rect5118-8-1-5"
       style="opacity:1;fill:#000000;fill-opacity:1;stroke:none;stroke-width:4;stroke-linecap:round;stroke-linejoin:miter;stroke-miterlimit:4;stroke-dasharray:none;stroke-opacity:1" />
    <rect
       y="611.31134"
       x="375.93069"
       height="5"
       width="5"
       id="rect5118-6-5-1-5-8"
       style="opacity:1;fill:#6bba00;fill-opacity:1;stroke:none;stroke-width:4;stroke-linecap:round;stroke-linejoin:miter;stroke-miterlimit:4;stroke-dasharray:none;stroke-opacity:1" />
    <rect
       y="622.41132"
       x="410.18518"
       height="5"
       width="5"
       id="rect5118-6-5-84-7-5"
       style="opacity:1;fill:#000000;fill-opacity:1;stroke:none;stroke-width:4;stroke-linecap:round;stroke-linejoin:miter;stroke-miterlimit:4;stroke-dasharray:none;stroke-opacity:1" />
    <rect
       y="612.70947"
       x="421.37036"
       height="5"
       width="5"
       id="rect5118-6-5-62-2-9"
       style="opacity:1;fill:#5a40c6;fill-opacity:1;stroke:none;stroke-width:4;stroke-linecap:round;stroke-linejoin:miter;stroke-miterlimit:4;stroke-dasharray:none;stroke-opacity:1" />
    <rect
       y="616.58606"
       x="339.72711"
       height="7.5"
       width="7.5"
       id="rect5118-6-8-6-4"
       style="opacity:1;fill:#5a40c6;fill-opacity:1;stroke:none;stroke-width:4;stroke-linecap:round;stroke-linejoin:miter;stroke-miterlimit:4;stroke-dasharray:none;stroke-opacity:1" />
    <rect
       y="608.43018"
       x="387.26398"
       height="7.5"
       width="7.5"
       id="rect5118-6-80-0-7"
       style="opacity:1;fill:#2cabb7;fill-opacity:1;stroke:none;stroke-width:4;stroke-linecap:round;stroke-linejoin:miter;stroke-miterlimit:4;stroke-dasharray:none;stroke-opacity:1" />
  </g>
  <g
     transform="matrix(0.68900638,0,0,0.68900638,47.766464,-630.70953)"
     id="text5950-5-5-8"
     style="font-size:60px;font-style:normal;font-variant:normal;font-weight:600;font-stretch:normal;text-align:start;line-height:89.99999762%;letter-spacing:0px;word-spacing:0px;writing-mode:lr-tb;text-anchor:start;fill:#000000;fill-opacity:1;stroke:none;font-family:Titillium;-inkscape-font-specification:Titillium Semi-Bold">
    <path
       id="path3561"
       style="font-size:60px;font-style:normal;font-variant:normal;font-weight:600;font-stretch:normal;font-family:Titillium;-inkscape-font-specification:Titillium Semi-Bold"
       d="m 255.90725,967.90002 6.66,0 0,-15.6 15.66,0 0,-5.82 -15.66,0 0,-13.86 18.84,0 0,-5.82 -25.5,0 0,41.1 z"
       inkscape:connector-curvature="0" />
    <path
       id="path3563"
       style="font-size:60px;font-style:normal;font-variant:normal;font-weight:600;font-stretch:normal;font-family:Titillium;-inkscape-font-specification:Titillium Semi-Bold"
       d="m 311.91069,927.52002 c 0,0 -7.8,-1.44 -13.02,-1.44 -8.22,0 -13.68,3.42 -13.68,11.7 0,7.14 3.84,9.84 12.72,12.12 6.3,1.5 8.16,2.7 8.16,6.18 0,4.32 -2.34,6.6 -7.44,6.6 -4.26,0 -12.36,-1.08 -12.36,-1.08 l -0.66,5.34 c 0,0 8.1,1.62 13.44,1.62 8.1,0 13.74,-3.9 13.74,-12.9 0,-7.02 -3.12,-9.3 -11.76,-11.7 -7.02,-1.92 -9.18,-2.82 -9.18,-6.66 0,-3.54 2.58,-5.34 7.62,-5.34 3.48,0 11.88,0.96 11.88,0.96 l 0.54,-5.4 z"
       inkscape:connector-curvature="0" />
    <path
       id="path3565"
       style="font-size:60px;font-style:normal;font-variant:normal;font-weight:600;font-stretch:normal;font-family:Titillium;-inkscape-font-specification:Titillium Semi-Bold"
       d="m 320.00881,967.90002 6.66,0 0,-15.6 15.66,0 0,-5.82 -15.66,0 0,-13.86 18.84,0 0,-5.82 -25.5,0 0,41.1 z"
       inkscape:connector-curvature="0" />
    <path
       id="path3567"
       style="font-size:60px;font-style:normal;font-variant:normal;font-weight:600;font-stretch:normal;font-family:Titillium;-inkscape-font-specification:Titillium Semi-Bold"
       d="m 348.46663,926.80002 8.04,41.1 10.8,0 7.02,-32.94 7.08,32.94 10.74,0 8.1,-41.1 -7.02,0 -5.88,35.34 -1.32,0 -7.8,-35.22 -7.8,0 -7.8,35.22 -1.26,0 -5.88,-35.34 -7.02,0 z"
       inkscape:connector-curvature="0" />
  </g>
  <g
     style="font-size:20px;font-style:normal;font-variant:normal;font-weight:normal;font-stretch:normal;line-height:125%;letter-spacing:1.48000002px;word-spacing:0px;fill:#000000;fill-opacity:1;stroke:none;font-family:Titillium;-inkscape-font-specification:Titillium"
     id="text3014"
     transform="translate(0,4.3353986)">
    <path
       d="m 225.39209,51.169205 0,-9.68 -1.54,0 0,9.64 c 0,3.179996 1.74,4.4 4.78,4.4 3.16,0 4.9,-1.240004 4.9,-4.4 l 0,-9.64 -1.52,0 0,9.68 c 0,2.159997 -1.22,3 -3.38,3 -2.04,0 -3.24,-0.840003 -3.24,-3"
       id="path3033"
       inkscape:connector-curvature="0" />
    <path
       d="m 239.56271,55.329205 0,-8.12 c 0,0 1.38001,-0.74 2.82,-0.74 1.86,0 2.16,0.980002 2.16,3.62 l 0,5.24 1.48,0 0,-5.28 c 0,-3.559997 -0.62,-4.92 -3.38,-4.92 -1.47999,0 -3.1,0.9 -3.1,0.9 l 0,-0.7 -1.48,0 0,10 1.5,0"
       id="path3035"
       inkscape:connector-curvature="0" />
    <path
       d="m 250.2849,55.329205 1.5,0 0,-10 -1.5,0 0,10 m 0,-12.26 1.5,0 0,-1.74 -1.5,0 0,1.74"
       id="path3037"
       inkscape:connector-curvature="0" />
    <path
       d="m 261.95396,50.529205 6.06,0 0,-1.4 -6.06,0 0,1.4"
       id="path3039"
       inkscape:connector-curvature="0" />
    <path
       d="m 286.31803,41.669205 c 0,0 -2.54,-0.4 -4.18,-0.4 -2.7,0 -4.46,1.040002 -4.46,3.72 0,2.639997 1.44,3.32 4.3,3.94 2.26,0.439999 3.08,0.880001 3.08,2.44 0,1.919998 -1,2.78 -2.96,2.78 -1.42,0 -4.14,-0.36 -4.14,-0.36 l -0.16,1.28 c 0,0 2.74,0.44 4.38,0.44 2.74,0 4.42,-1.200004 4.42,-4.26 0,-2.419998 -1.22,-3.100001 -3.98,-3.72 -2.42,-0.54 -3.38,-0.840002 -3.38,-2.64 0,-1.559999 1.04,-2.26 3,-2.26 1.16,0 3.94,0.34 3.94,0.34 l 0.14,-1.3"
       id="path3041"
       inkscape:connector-curvature="0" />
    <path
       d="m 295.48209,46.629205 0,-1.3 -3.18,0 0,-3.06 -1.48,0 0,3.06 -1.42,0 0,1.3 1.42,0 0,5.26 c 0,2.879997 0.7,3.66 2.76,3.66 0.7,0 2.04,-0.22 2.04,-0.22 l -0.1,-1.24 c 0,0 -1.22,0.12 -1.78,0.12 -1.3,0 -1.44,-0.620003 -1.44,-2.8 l 0,-4.78 3.18,0"
       id="path3043"
       inkscape:connector-curvature="0" />
    <path
       d="m 298.81334,55.329205 1.5,0 0,-10 -1.5,0 0,10 m 0,-12.26 1.5,0 0,-1.74 -1.5,0 0,1.74"
       id="path3045"
       inkscape:connector-curvature="0" />
    <path
       d="m 308.40834,45.129205 c -2.98,0 -4.16,1.400003 -4.16,5.02 0,3.919996 0.94,5.38 4.12,5.38 0.92,0 2.78,-0.28 2.78,-0.28 l -0.06,-1.24 c 0,0 -1.6,0.18 -2.36,0.18 -2.48,0 -2.94,-1.080003 -2.94,-4.04 0,-2.679998 0.62,-3.68 2.92,-3.68 0.76,0 2.36,0.18 2.36,0.18 l 0.06,-1.22 c 0,0 -1.8,-0.3 -2.72,-0.3"
       id="path3047"
       inkscape:connector-curvature="0" />
    <path
       d="m 316.35928,55.329205 0,-4.58 1.58,-0.06 2.98,4.64 1.7,0 -3.4,-5.4 3.26,-4.6 -1.7,0 -2.86,4.04 -1.56,0.08 0,-8.48 -1.5,0 0,14.36 1.5,0"
       id="path3049"
       inkscape:connector-curvature="0" />
  </g>
</svg>
