<?xml version="1.0" encoding="UTF-8" standalone="no"?>
<!-- Generator: Adobe Illustrator 16.0.0, SVG Export Plug-In . SVG Version: 6.00 Build 0)  -->

<svg
   xmlns:dc="http://purl.org/dc/elements/1.1/"
   xmlns:cc="http://creativecommons.org/ns#"
   xmlns:rdf="http://www.w3.org/1999/02/22-rdf-syntax-ns#"
   xmlns:svg="http://www.w3.org/2000/svg"
   xmlns="http://www.w3.org/2000/svg"
   xmlns:sodipodi="http://sodipodi.sourceforge.net/DTD/sodipodi-0.dtd"
   xmlns:inkscape="http://www.inkscape.org/namespaces/inkscape"
   version="1.1"
   x="0px"
   y="0px"
   width="1920px"
   height="1080px"
   viewBox="0 0 1920 1080"
   enable-background="new 0 0 1920 1080"
   xml:space="preserve"
   id="svg4504"
   inkscape:version="0.91 r13725"
   sodipodi:docname="background.svg"><metadata
     id="metadata4686"><rdf:RDF><cc:Work
         rdf:about=""><dc:format>image/svg+xml</dc:format><dc:type
           rdf:resource="http://purl.org/dc/dcmitype/StillImage" /></cc:Work></rdf:RDF></metadata><defs
     id="defs4684" /><sodipodi:namedview
     pagecolor="#ffffff"
     bordercolor="#666666"
     borderopacity="1"
     objecttolerance="10"
     gridtolerance="10"
     guidetolerance="10"
     inkscape:pageopacity="0"
     inkscape:pageshadow="2"
     inkscape:window-width="1920"
     inkscape:window-height="1007"
     id="namedview4682"
     showgrid="false"
     inkscape:zoom="0.67416276"
     inkscape:cx="897.7475"
     inkscape:cy="543.59852"
     inkscape:window-x="0"
     inkscape:window-y="0"
     inkscape:window-maximized="1"
     inkscape:current-layer="svg4504" /><g
     id="Layer_1_1_"><g
       id="background_1_"><linearGradient
         id="SVGID_1_"
         gradientUnits="userSpaceOnUse"
         x1="-2376.5322"
         y1="2697.7949"
         x2="-2376.5327"
         y2="1500.0276"
         gradientTransform="matrix(1,0,0,-1,3336.5801,2637.0781)"><stop
           offset="0"
           style="stop-color:#133356"
           id="stop4511" /><stop
           offset="0.5025"
           style="stop-color:#7C9999"
           id="stop4513" /><stop
           offset="1"
           style="stop-color:#333333"
           id="stop4515" /></linearGradient><rect
         x="-1.4529999"
         y="-63.602001"
         width="1923"
         height="1200.007"
         id="rect4517"
         style="fill:url(#SVGID_1_)" /></g><g
       id="Layer_4"><radialGradient
         id="SVGID_2_"
         cx="-2475.5806"
         cy="1919.6914"
         r="942.22388"
         gradientTransform="matrix(0.9956,0,0,-1.1148,3334.9426,2647.417)"
         gradientUnits="userSpaceOnUse"><stop
           offset="0"
           style="stop-color:#E4C8A5;stop-opacity:0.5"
           id="stop4521" /><stop
           offset="0.1429"
           style="stop-color:#AEAB93;stop-opacity:0.4372"
           id="stop4523" /><stop
           offset="0.3797"
           style="stop-color:#587E77;stop-opacity:0.3331"
           id="stop4525" /><stop
           offset="0.4877"
           style="stop-color:#366C6C;stop-opacity:0.2857"
           id="stop4527" /></radialGradient><rect
         x="-1.4529999"
         y="-62.481998"
         width="1923"
         height="1204.072"
         id="rect4529"
         style="fill:url(#SVGID_2_)" /></g></g><g
     id="glows"><radialGradient
       id="SVGID_3_"
       cx="-1844.5469"
       cy="2107.6094"
       r="279.20999"
       gradientTransform="matrix(1,0,0,-1,3336.5801,2637.0781)"
       gradientUnits="userSpaceOnUse"><stop
         offset="0"
         style="stop-color:#FFFCDD"
         id="stop4533" /><stop
         offset="1"
         style="stop-color:#FEF9C8;stop-opacity:0"
         id="stop4535" /></radialGradient><circle
       enable-background="new    "
       cx="1492.033"
       cy="529.46802"
       r="279.20999"
       id="circle4537"
       style="opacity:0.2;fill:url(#SVGID_3_)" /><radialGradient
       id="SVGID_4_"
       cx="-1999.6094"
       cy="2203.6973"
       r="221.0015"
       gradientTransform="matrix(1,0,0,-1,3336.5801,2637.0781)"
       gradientUnits="userSpaceOnUse"><stop
         offset="0"
         style="stop-color:#99CCCC"
         id="stop4540" /><stop
         offset="1"
         style="stop-color:#FEF9C8;stop-opacity:0"
         id="stop4542" /></radialGradient><circle
       enable-background="new    "
       cx="1336.9709"
       cy="433.38101"
       r="221.002"
       id="circle4544"
       style="opacity:0.2;fill:url(#SVGID_4_)" /><radialGradient
       id="SVGID_5_"
       cx="-2953.5332"
       cy="2241.6973"
       r="293.0029"
       gradientTransform="matrix(1,0,0,-1,3336.5801,2637.0781)"
       gradientUnits="userSpaceOnUse"><stop
         offset="0"
         style="stop-color:#FFFCDD"
         id="stop4547" /><stop
         offset="1"
         style="stop-color:#FEF9C8;stop-opacity:0"
         id="stop4549" /></radialGradient><circle
       enable-background="new    "
       cx="383.047"
       cy="395.38"
       r="293.00299"
       id="circle4551"
       style="opacity:0.1;fill:url(#SVGID_5_)" /><radialGradient
       id="SVGID_6_"
       cx="-2765.5332"
       cy="2052.6523"
       r="293.0029"
       gradientTransform="matrix(1,0,0,-1,3336.5801,2637.0781)"
       gradientUnits="userSpaceOnUse"><stop
         offset="0"
         style="stop-color:#FFFCDD"
         id="stop4554" /><stop
         offset="1"
         style="stop-color:#FEF9C8;stop-opacity:0"
         id="stop4556" /></radialGradient><circle
       enable-background="new    "
       cx="571.047"
       cy="584.42499"
       r="293.00299"
       id="circle4558"
       style="opacity:0.1;fill:url(#SVGID_6_)" /><radialGradient
       id="SVGID_7_"
       cx="-2669.1982"
       cy="1959.8184"
       r="374.83301"
       gradientTransform="matrix(1,0,0,-1,3336.5801,2637.0781)"
       gradientUnits="userSpaceOnUse"><stop
         offset="0"
         style="stop-color:#FFFCDD"
         id="stop4561" /><stop
         offset="1"
         style="stop-color:#FEF9C8;stop-opacity:0"
         id="stop4563" /></radialGradient><circle
       enable-background="new    "
       cx="667.38202"
       cy="677.25897"
       r="374.83301"
       id="circle4565"
       style="opacity:0.1;fill:url(#SVGID_7_)" /><radialGradient
       id="SVGID_8_"
       cx="-2057.7031"
       cy="2037.5859"
       r="374.83249"
       gradientTransform="matrix(1,0,0,-1,3336.5801,2637.0781)"
       gradientUnits="userSpaceOnUse"><stop
         offset="0"
         style="stop-color:#FFFCDD"
         id="stop4568" /><stop
         offset="1"
         style="stop-color:#FEF9C8;stop-opacity:0"
         id="stop4570" /></radialGradient><path
       enable-background="new    "
       d="m 1278.877,224.659 c 207.014,0 374.832,167.817 374.832,374.835 0,207.014 -167.818,374.832 -374.832,374.832 -207.014,0 -374.832,-167.818 -374.832,-374.832 0,-207.017 167.818,-374.835 374.832,-374.835 z"
       id="path4572"
       style="opacity:0.1;fill:url(#SVGID_8_)"
       inkscape:connector-curvature="0" /><radialGradient
       id="SVGID_9_"
       cx="-2704.3438"
       cy="2187.584"
       r="374.83301"
       gradientTransform="matrix(1,0,0,-1,3336.5801,2637.0781)"
       gradientUnits="userSpaceOnUse"><stop
         offset="0"
         style="stop-color:#99CCCC"
         id="stop4575" /><stop
         offset="1"
         style="stop-color:#FEF9C8;stop-opacity:0"
         id="stop4577" /></radialGradient><circle
       enable-background="new    "
       cx="632.23602"
       cy="449.49399"
       r="374.83301"
       id="circle4579"
       style="opacity:0.2;fill:url(#SVGID_9_)" /><radialGradient
       id="SVGID_10_"
       cx="-1770.0449"
       cy="2169.5859"
       r="374.83249"
       gradientTransform="matrix(1,0,0,-1,3336.5801,2637.0781)"
       gradientUnits="userSpaceOnUse"><stop
         offset="0"
         style="stop-color:#FFFCDD"
         id="stop4582" /><stop
         offset="1"
         style="stop-color:#FEF9C8;stop-opacity:0"
         id="stop4584" /></radialGradient><circle
       enable-background="new    "
       cx="1566.535"
       cy="467.49301"
       r="374.83301"
       id="circle4586"
       style="opacity:0.2;fill:url(#SVGID_10_)" /><radialGradient
       id="SVGID_11_"
       cx="-1879.875"
       cy="1905.5859"
       r="374.83301"
       gradientTransform="matrix(1,0,0,-1,3336.5801,2637.0781)"
       gradientUnits="userSpaceOnUse"><stop
         offset="0"
         style="stop-color:#99CCCC"
         id="stop4589" /><stop
         offset="1"
         style="stop-color:#FEF9C8;stop-opacity:0"
         id="stop4591" /></radialGradient><circle
       enable-background="new    "
       cx="1456.705"
       cy="731.492"
       r="374.83301"
       id="circle4593"
       style="opacity:0.2;fill:url(#SVGID_11_)" /></g><g
     id="octopus_1_"><radialGradient
       id="SVGID_12_"
       cx="1211.6084"
       cy="-1277.7612"
       r="704.52618"
       gradientTransform="matrix(-1,0,0,1,2292.8672,2067.418)"
       gradientUnits="userSpaceOnUse"><stop
         offset="0"
         style="stop-color:#BCCCB3"
         id="stop4597" /><stop
         offset="1"
         style="stop-color:#FEF9C8;stop-opacity:0"
         id="stop4599" /></radialGradient><path
       enable-background="new    "
       d="m 342.803,287.655 c 0,0 -166.237,203.738 -110.913,420.003 93.525,365.564 376.691,424 835.374,320 808.268,-183.266 836.202,226 830.202,264 l 43.879,-63.617 c 6,-38 -21.938,-447.26 -830.201,-264 -458.686,104 -741.853,45.568 -835.374,-320 -55.323,-216.262 67.033,-356.386 67.033,-356.386"
       id="path4601"
       style="opacity:0.1;fill:url(#SVGID_12_)"
       inkscape:connector-curvature="0" /><radialGradient
       id="SVGID_13_"
       cx="1002.0547"
       cy="-1545.2832"
       r="1411.9412"
       gradientTransform="matrix(-1,0,0,1,2292.8672,2067.418)"
       gradientUnits="userSpaceOnUse"><stop
         offset="0"
         style="stop-color:#BCCCB3"
         id="stop4604" /><stop
         offset="1"
         style="stop-color:#FEF9C8;stop-opacity:0"
         id="stop4606" /></radialGradient><path
       enable-background="new    "
       d="m 190.59,182.873 c 0,0 -166.237,203.742 -110.914,420.003 93.523,365.569 376.689,424 835.377,320 808.259,-183.26 836.199,226 830.199,264 l 56.753,-5.731 c 28.162,-64.279 -34.813,-505.146 -843.073,-321.886 -458.687,104 -741.853,45.57 -835.374,-320 C 68.234,322.998 190.59,182.873 190.59,182.873"
       id="path4608"
       style="opacity:0.5;fill:url(#SVGID_13_)"
       inkscape:connector-curvature="0" /><radialGradient
       id="SVGID_14_"
       cx="1144.1123"
       cy="-1303.562"
       r="704.52533"
       gradientTransform="matrix(-1,0,0,1,2292.8672,2067.418)"
       gradientUnits="userSpaceOnUse"><stop
         offset="0"
         style="stop-color:#BCCCB3"
         id="stop4611" /><stop
         offset="1"
         style="stop-color:#FEF9C8;stop-opacity:0"
         id="stop4613" /></radialGradient><path
       enable-background="new    "
       d="m 410.301,261.855 c 0,0 -166.237,203.742 -110.914,420.001 93.524,365.569 376.69,424 835.374,320 808.262,-183.26 836.201,226 830.201,264 l 43.879,-63.611 c 6,-38 -21.938,-447.266 -830.2,-264 -458.685,104 -741.852,45.564 -835.373,-320 -55.323,-216.266 67.033,-356.39 67.033,-356.39"
       id="path4615"
       style="opacity:0.2;fill:url(#SVGID_14_)"
       inkscape:connector-curvature="0" /><linearGradient
       id="SVGID_15_"
       gradientUnits="userSpaceOnUse"
       x1="350.0889"
       y1="-1472.1411"
       x2="2103.6758"
       y2="-1472.1411"
       gradientTransform="matrix(-1,0,0,1,2292.8672,2067.418)"><stop
         offset="0"
         style="stop-color:#ABCCB3;stop-opacity:0.7"
         id="stop4618" /><stop
         offset="0.33"
         style="stop-color:#B4CFB5;stop-opacity:0.05"
         id="stop4620" /><stop
         offset="0.803"
         style="stop-color:#C1D4B7;stop-opacity:0.5"
         id="stop4622" /><stop
         offset="1"
         style="stop-color:#FEF9C8;stop-opacity:0"
         id="stop4624" /></linearGradient><path
       enable-background="new    "
       d="m 189.191,415.784 c 0,0 47.39,-179.889 257.465,-255.367 391.015,-159.975 617.139,163.146 752.904,485.594 12,28.498 41.998,100.494 91.495,238.488 65.38,182.265 154.492,184.489 352.063,147.319 304.773,-69.104 284.29,85.22 282.025,99.549 l 16.545,-23.987 c 2.266,-14.328 22.748,-168.653 -282.025,-99.549 -188.504,40.321 -280.207,-1.222 -333.087,-139.832 C 1273.696,729.39 1270.441,724.206 1220.555,596.515 1049.412,158.419 853.079,-15.46 474.713,88.408 264.642,163.888 189.191,415.784 189.191,415.784"
       id="path4626"
       style="opacity:0.4;fill:url(#SVGID_15_)"
       inkscape:connector-curvature="0" /></g><g
     id="rounds"><path
       stroke-miterlimit="10"
       d="M 1218.335,713.258"
       id="path4629"
       inkscape:connector-curvature="0"
       style="fill:none;stroke:#ffffff;stroke-width:2;stroke-miterlimit:10" /><circle
       enable-background="new    "
       cx="1148.752"
       cy="751.78497"
       r="13.107"
       id="circle4631"
       style="opacity:0.3;fill:#ffffff" /><circle
       enable-background="new    "
       cx="1493.0601"
       cy="566.77802"
       r="13.109"
       id="circle4633"
       style="opacity:0.2;fill:#ffffff" /><circle
       enable-background="new    "
       cx="1726.431"
       cy="302.62601"
       r="13.107"
       id="circle4635"
       style="opacity:0.1;fill:#ffffff" /><circle
       enable-background="new    "
       cx="750.62299"
       cy="832.72101"
       r="13.107"
       id="circle4637"
       style="opacity:0.4;fill:#ffffff" /></g><g
     id="logoGroup_1_"
     transform="matrix(0.69703882,0,0,0.69703882,144.20679,163.58783)"><circle
       enable-background="new    "
       cx="475.991"
       cy="539.96301"
       r="147.05701"
       id="circle4640"
       style="opacity:0.4;fill:#366c6c" /><g
       id="logo_1_"
       enable-background="new    "><path
         d="m 488.914,547.236 c -2.729,0.032 0.517,1.398 4.08,1.949 0.987,-0.771 1.875,-1.545 2.67,-2.303 -2.215,0.547 -4.473,0.561 -6.75,0.354"
         id="path4643"
         inkscape:connector-curvature="0"
         style="fill:#ffffff" /><path
         d="m 503.563,543.584 c 1.629,-2.248 2.813,-4.701 3.229,-7.239 -0.367,1.812 -1.347,3.367 -2.271,5.022 -5.104,3.216 -0.482,-1.906 -0.007,-3.856 -5.479,6.907 -0.752,4.141 -0.951,6.073"
         id="path4645"
         inkscape:connector-curvature="0"
         style="fill:#ffffff" /><path
         d="m 508.975,529.506 c 0.332,-4.914 -0.965,-3.356 -1.4,-1.486 0.505,0.268 0.909,3.468 1.4,1.486"
         id="path4647"
         inkscape:connector-curvature="0"
         style="fill:#ffffff" /><path
         d="m 478.559,462.313 c 1.459,0.267 3.149,0.461 2.906,0.813 1.598,-0.357 1.961,-0.672 -2.906,-0.813"
         id="path4649"
         inkscape:connector-curvature="0"
         style="fill:#ffffff" /><path
         d="m 481.467,463.122 -1.021,0.215 0.957,-0.09 0.064,-0.125"
         id="path4651"
         inkscape:connector-curvature="0"
         style="fill:#ffffff" /><path
         d="m 526.902,531.373 c 0.161,4.415 -1.291,6.559 -2.604,10.352 l -2.359,1.178 c -1.934,3.755 0.191,2.387 -1.191,5.363 -3.018,2.685 -9.146,8.387 -11.104,8.906 -1.437,-0.033 0.973,-1.693 1.285,-2.342 -4.035,2.771 -3.235,4.158 -9.412,5.846 l -0.183,-0.404 c -15.219,7.162 -36.356,-7.021 -36.082,-26.385 -0.159,1.229 -0.461,0.922 -0.799,1.414 -0.785,-9.96 4.604,-19.961 13.687,-24.054 8.888,-4.397 19.304,-2.601 25.658,3.343 -3.492,-4.578 -10.449,-9.433 -18.692,-8.982 -8.073,0.136 -15.634,5.27 -18.153,10.84 -4.141,2.604 -4.619,10.04 -6.42,11.4 -2.43,17.83 4.563,25.53 16.39,34.596 1.854,1.258 0.521,1.443 0.771,2.397 -3.932,-1.836 -7.521,-4.615 -10.48,-8.015 1.57,2.293 3.267,4.521 5.455,6.278 -3.707,-1.25 -8.655,-8.978 -10.1,-9.289 6.387,11.437 25.896,20.054 36.13,15.771 -4.733,0.178 -10.741,0.099 -16.058,-1.868 -2.235,-1.146 -5.271,-3.521 -4.729,-3.969 13.951,5.209 28.355,3.939 40.431,-5.732 3.073,-2.392 6.428,-6.459 7.396,-6.515 -1.459,2.196 0.25,1.055 -0.872,2.993 3.057,-4.938 -1.33,-2.01 3.159,-8.521 l 1.659,2.283 c -0.62,-4.102 5.091,-9.071 4.507,-15.55 1.312,-1.979 1.459,2.136 0.068,6.688 1.93,-5.057 0.514,-5.86 1.005,-10.042 0.528,1.403 1.235,2.897 1.602,4.375 -1.257,-4.889 1.282,-8.229 1.916,-11.063 -0.625,-0.275 -1.938,2.157 -2.24,-3.61 0.045,-2.509 0.699,-1.313 0.949,-1.933 -0.488,-0.284 -1.779,-2.206 -2.563,-5.895 0.563,-0.863 1.521,2.244 2.293,2.369 -0.494,-2.928 -1.354,-5.161 -1.394,-7.411 -2.265,-4.729 -0.804,0.636 -2.638,-2.026 -2.409,-7.522 1.998,-1.744 2.302,-5.159 3.646,5.292 5.729,13.491 6.688,16.891 -0.729,-4.142 -1.903,-8.149 -3.351,-12.039 1.107,0.477 -1.794,-8.52 1.438,-2.563 -3.447,-12.69 -14.761,-24.546 -25.162,-30.106 1.271,1.162 2.877,2.624 2.309,2.854 -5.184,-3.077 -4.271,-3.321 -5.016,-4.623 -4.213,-1.714 -4.489,0.142 -7.273,0.007 -7.946,-4.218 -9.479,-3.77 -16.791,-6.408 l 0.33,1.563 c -5.265,-1.756 -6.135,0.657 -11.821,0.004 -0.345,-0.271 1.825,-0.979 3.609,-1.238 -5.092,0.673 -4.854,-1.004 -9.829,0.188 1.226,-0.86 2.521,-1.438 3.834,-2.164 -4.146,0.254 -9.91,2.414 -8.135,0.438 -6.771,3.023 -18.79,7.269 -25.538,13.593 l -0.212,-1.416 c -3.092,3.714 -13.479,11.08 -14.313,15.896 l -0.823,0.188 c -1.604,2.727 -2.646,5.813 -3.927,8.608 -2.104,3.586 -3.084,1.381 -2.782,1.943 -4.14,8.392 -6.197,15.438 -7.974,21.225 1.267,1.891 0.031,11.385 0.511,18.983 -2.076,37.524 26.339,73.972 57.399,82.38 4.551,1.637 11.32,1.576 17.079,1.732 -6.796,-1.938 -7.673,-1.025 -14.291,-3.341 -4.771,-2.247 -5.819,-4.813 -9.202,-7.75 l 1.338,2.363 c -6.629,-2.346 -3.854,-2.904 -9.252,-4.613 l 1.435,-1.858 c -2.149,-0.164 -5.694,-3.619 -6.664,-5.544 l -2.354,0.096 c -2.821,-3.481 -4.332,-5.998 -4.22,-7.945 l -0.762,1.354 c -0.86,-1.479 -10.396,-13.075 -5.449,-10.375 -0.92,-0.84 -2.146,-1.365 -3.467,-3.773 l 1.008,-1.146 c -2.379,-3.063 -4.386,-6.992 -4.229,-8.306 1.271,1.717 2.147,2.034 3.022,2.329 -6.014,-14.914 -6.354,-0.814 -10.899,-15.181 l 0.965,-0.076 c -0.737,-1.118 -1.188,-2.318 -1.781,-3.507 l 0.422,-4.176 c -4.323,-4.998 -1.209,-21.272 -0.584,-30.197 0.434,-3.628 3.611,-7.494 6.027,-13.555 l -1.474,-0.255 c 2.814,-4.905 16.08,-19.73 22.229,-18.973 2.978,-3.732 -0.594,-0.014 -1.178,-0.953 6.541,-6.765 8.597,-4.772 13.008,-5.997 4.759,-2.818 -4.082,1.104 -1.827,-1.069 8.227,-2.104 5.827,-4.776 16.561,-5.846 1.132,0.646 -2.625,0.99 -3.564,1.824 6.853,-3.354 21.688,-2.588 31.321,1.86 11.179,5.229 23.734,20.672 24.232,35.202 l 0.563,0.146 c -0.283,5.778 0.888,12.458 -1.146,18.596 l 1.372,-2.897"
         id="path4653"
         inkscape:connector-curvature="0"
         style="fill:#ffffff" /><path
         d="m 459.117,550.979 -0.385,1.913 c 1.793,2.438 3.219,5.081 5.508,6.979 -1.648,-3.21 -2.869,-4.539 -5.123,-8.892"
         id="path4655"
         inkscape:connector-curvature="0"
         style="fill:#ffffff" /><path
         d="m 463.354,550.816 c -0.948,-1.053 -1.513,-2.313 -2.146,-3.568 0.604,2.213 1.838,4.107 2.983,6.052 l -0.837,-2.484"
         id="path4657"
         inkscape:connector-curvature="0"
         style="fill:#ffffff" /><path
         d="m 538.412,534.501 -0.396,1.008 c -0.732,5.223 -2.327,10.391 -4.762,15.18 2.689,-5.054 4.422,-10.582 5.158,-16.188"
         id="path4659"
         inkscape:connector-curvature="0"
         style="fill:#ffffff" /><path
         d="m 479.102,461.001 c 1.85,-0.672 4.535,-0.368 6.498,-0.813 -2.558,0.22 -5.099,0.348 -7.604,0.659 l 1.106,0.154"
         id="path4661"
         inkscape:connector-curvature="0"
         style="fill:#ffffff" /><path
         d="m 414.299,495.463 c 0.426,3.935 -2.962,5.463 0.745,2.866 1.995,-4.483 -0.769,-1.237 -0.745,-2.866"
         id="path4663"
         inkscape:connector-curvature="0"
         style="fill:#ffffff" /><path
         d="m 409.936,513.686 c 0.854,-2.624 1.012,-4.198 1.338,-5.72 -2.364,3.021 -1.09,3.664 -1.338,5.72"
         id="path4665"
         inkscape:connector-curvature="0"
         style="fill:#ffffff" /></g></g></svg>