<?xml version="1.0" encoding="UTF-8" standalone="no"?>
<svg
   xmlns:dc="http://purl.org/dc/elements/1.1/"
   xmlns:cc="http://creativecommons.org/ns#"
   xmlns:rdf="http://www.w3.org/1999/02/22-rdf-syntax-ns#"
   xmlns:svg="http://www.w3.org/2000/svg"
   xmlns="http://www.w3.org/2000/svg"
   width="1366"
   height="768"
   viewBox="0 0 361.42083 203.2"
   version="1.1"
   id="svg2683">
  <defs
     id="defs2677">
    <filter
       id="filter4416"
       style="color-interpolation-filters:sRGB">
      <feFlood
         flood-opacity="1"
         flood-color="rgb(204,204,204)"
         result="flood"
         id="feFlood4418" />
      <feComposite
         in="flood"
         in2="SourceGraphic"
         operator="in"
         result="composite1"
         id="feComposite4420" />
      <feGaussianBlur
         in="composite1"
         stdDeviation="4"
         result="blur"
         id="feGaussianBlur4422" />
      <feOffset
         dx="0"
         dy="0"
         result="offset"
         id="feOffset4424" />
      <feComposite
         in="SourceGraphic"
         in2="offset"
         operator="over"
         result="composite2"
         id="feComposite4426" />
    </filter>
    <filter
       style="color-interpolation-filters:sRGB"
       id="filter4416-3">
      <feFlood
         id="feFlood4418-1"
         result="flood"
         flood-color="rgb(204,204,204)"
         flood-opacity="1" />
      <feComposite
         id="feComposite4420-3"
         result="composite1"
         operator="in"
         in2="SourceGraphic"
         in="flood" />
      <feGaussianBlur
         id="feGaussianBlur4422-5"
         result="blur"
         stdDeviation="4"
         in="composite1" />
      <feOffset
         id="feOffset4424-3"
         result="offset"
         dy="0"
         dx="0" />
      <feComposite
         id="feComposite4426-8"
         result="composite2"
         operator="over"
         in2="offset"
         in="SourceGraphic" />
    </filter>
  </defs>
  <metadata
     id="metadata2680">
    <rdf:RDF>
      <cc:Work
         rdf:about="">
        <dc:format>image/svg+xml</dc:format>
        <dc:type
           rdf:resource="http://purl.org/dc/dcmitype/StillImage" />
        <dc:title></dc:title>
      </cc:Work>
    </rdf:RDF>
  </metadata>
  <g
     transform="translate(0,-93.799983)"
     id="layer1">
    <rect
       style="color:#000000;overflow:visible;opacity:1;vector-effect:none;fill:#ffffff;fill-opacity:1;stroke:#000000;stroke-width:0.26458335px;stroke-linecap:butt;stroke-linejoin:miter;stroke-miterlimit:4;stroke-dasharray:none;stroke-dashoffset:0;stroke-opacity:1;paint-order:stroke fill markers"
       id="rect6974"
       width="105.56875"
       height="105.56875"
       x="213.96596"
       y="167.22601" />
    <path
       id="path6972"
       d="M -373.88719,258.35883 H 756.36277"
       style="fill:none;fill-rule:evenodd;stroke:#000000;stroke-width:0.26458335px;stroke-linecap:butt;stroke-linejoin:miter;stroke-opacity:1" />
    <g
       id="g135558"
       transform="matrix(3.5959986,0,0,3.5958888,-355.86999,-198.08223)"
       style="stroke-width:0.2780911">
      <path
         id="path4546"
         d="m 164.49648,119.89111 c -0.004,-0.0111 -0.006,-0.0476 -0.003,-0.0808 l 0.004,-0.0606 0.10507,-0.007 c 0.099,-0.006 0.10754,-0.01 0.14765,-0.0555 0.18363,-0.2098 0.37826,-0.52951 0.51673,-0.84876 l 0.0458,-0.10562 0.16883,-0.0233 c 0.0928,-0.0129 0.20008,-0.0292 0.23828,-0.0366 0.0382,-0.007 0.12258,-0.0228 0.18752,-0.0345 0.0648,-0.0116 0.14307,-0.0271 0.17364,-0.0342 0.0306,-0.007 0.10244,-0.0234 0.15974,-0.0362 0.24685,-0.0549 0.63724,-0.1666 1.19459,-0.34181 0.34524,-0.10854 0.7421,-0.22966 0.88206,-0.2692 0.52241,-0.14761 0.85042,-0.22523 1.37516,-0.32545 0.0382,-0.007 0.14135,-0.0226 0.2292,-0.034 0.6077,-0.0788 0.96391,-0.0675 1.52103,0.0479 0.21348,0.0442 0.52938,0.18343 0.69822,0.30766 0.0971,0.0714 0.2755,0.24925 0.37731,0.37603 0.066,0.0823 0.0982,0.11061 0.0982,0.0866 0,-0.015 -0.14145,-0.23438 -0.20171,-0.31269 -0.26564,-0.34521 -0.67481,-0.58774 -1.14568,-0.6791 -0.48029,-0.0932 -1.13235,-0.0668 -1.82662,0.0738 -0.21987,0.0446 -0.63596,0.14923 -1.0002,0.25168 -0.35656,0.10029 -0.42143,0.11842 -0.47221,0.13199 -0.0409,0.011 -0.43923,0.12436 -0.53479,0.15228 -0.0948,0.0277 -0.39478,0.10934 -0.68063,0.18523 -0.10314,0.0273 -0.22503,0.06 -0.27087,0.0724 -0.38065,0.10342 -0.43852,0.11593 -0.35661,0.0771 0.0604,-0.0286 0.52497,-0.2013 0.73165,-0.27191 0.0611,-0.0209 0.17052,-0.0585 0.24308,-0.0835 0.35987,-0.12444 1.19922,-0.37875 1.61132,-0.48817 0.12759,-0.0339 0.54475,-0.13813 0.71537,-0.17877 0.19188,-0.0457 0.51816,-0.10297 0.75009,-0.13165 0.30689,-0.038 0.91193,-0.0379 1.10013,1.4e-4 0.1928,0.0389 0.22636,0.0472 0.35145,0.0861 0.44276,0.13799 0.89025,0.48153 1.12339,0.86246 0.031,0.0507 0.0755,0.12991 0.0987,0.176 0.0232,0.0461 0.0505,0.0838 0.0606,0.0838 0.0101,0 0.0396,-0.0297 0.0656,-0.066 0.17164,-0.23928 0.55575,-0.64171 0.83944,-0.87945 0.95861,-0.80334 2.14017,-1.26702 3.55601,-1.39546 0.39394,-0.0357 1.058,-0.0215 1.3335,0.0286 0.0229,0.004 0.0979,0.0176 0.16668,0.0297 0.13149,0.0232 0.20985,0.051 0.11113,0.0396 -0.0305,-0.003 -0.1212,-0.0144 -0.20142,-0.0241 -0.18785,-0.0225 -0.86991,-0.0217 -1.09041,0.002 -0.30021,0.0314 -0.52661,0.0582 -0.5973,0.0709 -0.32113,0.0577 -0.35138,0.0639 -0.56952,0.11654 -0.80719,0.19501 -1.65336,0.59019 -2.25028,1.05094 -0.16807,0.12974 -0.26638,0.21633 -0.25684,0.22619 0.003,0.004 0.11239,-0.0459 0.24108,-0.11086 0.2154,-0.10876 0.51436,-0.24517 0.63335,-0.28899 0.0271,-0.01 0.1023,-0.0381 0.16723,-0.0626 0.20804,-0.0784 0.62632,-0.21449 0.81261,-0.26434 0.32553,-0.0872 0.51117,-0.12745 0.76398,-0.16601 0.38345,-0.0585 0.87079,-0.0554 1.18765,0.008 0.12113,0.0242 0.29694,0.0743 0.28871,0.0826 -0.003,0.003 -0.0397,1.7e-4 -0.0812,-0.006 -0.0415,-0.006 -0.17357,-0.0201 -0.29337,-0.0297 -0.64196,-0.0522 -1.57387,0.14441 -2.37277,0.50079 -0.25181,0.11233 -0.68822,0.3299 -0.70692,0.35242 -0.0236,0.0285 -0.0232,0.0284 0.0835,-0.006 0.10211,-0.0329 0.40536,-0.11796 0.45673,-0.12815 0.0191,-0.003 0.10973,-0.0236 0.20141,-0.0442 0.76314,-0.17087 1.63514,-0.22004 2.24334,-0.12652 0.8216,0.12635 1.49425,0.44062 2.17388,1.01566 0.35166,0.29754 0.62836,0.59664 1.14309,1.2356 l 0.12308,0.1528 0.11701,0.007 0.11701,0.007 v 0.0764 0.0764 l -3.57684,-5e-5 c -4.0323,-4e-5 -3.65303,0.0109 -3.85351,-0.11084 l -0.10387,-0.063 -0.0945,0.0362 c -0.3152,0.12112 -0.39707,0.13505 -0.79596,0.13541 -0.37781,3.2e-4 -0.4538,-0.0115 -0.71027,-0.11011 l -0.16161,-0.0621 -0.0954,0.0468 c -0.11994,0.0589 -0.15685,0.0729 -0.26901,0.10189 -0.0831,0.0215 -0.37144,0.0238 -3.62204,0.0291 -3.08396,0.005 -3.53273,0.003 -3.53951,-0.0146 z m 8.63396,-0.0849 c 0.16398,-0.0275 0.41722,-0.10603 0.41627,-0.12907 -7.3e-4,-0.022 -0.038,-0.0594 -0.0589,-0.0594 -0.0119,0 -0.0518,0.013 -0.0888,0.029 -0.18194,0.0785 -0.30048,0.10084 -0.53942,0.10177 -0.18335,6.6e-4 -0.36842,-0.0197 -0.43061,-0.0476 -0.0153,-0.006 -0.0508,-0.0184 -0.0789,-0.0256 -0.11731,-0.0303 0.0125,0.0562 0.14653,0.0976 0.16662,0.0515 0.44026,0.0657 0.63385,0.0333 z m 5.45902,-0.0776 c 0,-0.0168 -0.0333,-0.0312 -0.14586,-0.063 -0.0459,-0.0129 -0.10835,-0.0315 -0.13891,-0.041 -0.0833,-0.0262 -0.43936,-0.1118 -0.5973,-0.1436 -0.82519,-0.16615 -1.74215,-0.25144 -2.40306,-0.22355 -0.47154,0.0198 -0.8197,0.0651 -1.44117,0.18688 -0.1009,0.0196 -0.12153,0.0282 -0.12153,0.0498 0,0.0143 0.0142,0.0347 0.0312,0.0455 0.0273,0.017 0.0583,0.0155 0.24118,-0.0117 0.61669,-0.0918 1.52277,-0.12991 2.13759,-0.09 0.27586,0.0179 0.66271,0.0519 0.79177,0.0695 0.54541,0.0747 0.59236,0.0824 0.96741,0.15998 0.13259,0.0274 0.26607,0.0548 0.29664,0.0609 0.0844,0.017 0.38198,0.0172 0.38198,3.2e-4 z m 1.73632,-0.0124 c 0,-0.0146 -0.004,-0.0286 -0.0104,-0.0312 -0.006,-0.003 -0.0687,-0.0684 -0.13986,-0.14639 -0.24231,-0.26535 -0.54852,-0.5074 -0.90541,-0.7157 -0.1454,-0.0848 -0.43636,-0.2354 -0.55563,-0.28747 -0.0421,-0.0184 -0.10764,-0.0477 -0.14585,-0.0652 -0.21156,-0.0969 -0.58841,-0.2296 -0.81954,-0.28866 -0.33816,-0.0864 -0.60824,-0.11992 -1.04019,-0.12905 -0.36486,-0.008 -0.66142,0.0103 -0.66142,0.0399 0,0.006 0.12057,0.0112 0.26794,0.0112 0.51884,0 0.92506,0.0492 1.41978,0.17194 0.32251,0.0801 0.84007,0.30111 1.11182,0.47494 0.0409,0.0262 0.0779,0.0476 0.0819,0.0476 0.0129,0 0.31599,0.20885 0.4106,0.28288 0.15238,0.11925 0.38792,0.33158 0.5554,0.50064 l 0.15951,0.16104 h 0.13566 c 0.12443,0 0.13566,-0.002 0.13566,-0.0266 z m 0.55562,0.006 c 0,-0.0116 -0.0698,-0.10626 -0.15512,-0.21036 -0.30796,-0.37581 -0.89279,-0.94763 -1.24528,-1.21761 -0.57504,-0.44043 -1.29891,-0.71751 -2.11178,-0.80833 -0.46101,-0.0516 -1.05911,-0.002 -1.78709,0.14643 -0.30162,0.0616 -0.89698,0.25721 -1.22932,0.40368 -0.18167,0.0801 -0.7362,0.36294 -0.7362,0.37554 0,0.0179 0.0243,0.0148 0.0813,-0.0102 0.0278,-0.0123 0.0633,-0.0276 0.0785,-0.0341 0.0266,-0.0112 0.25828,-0.10257 0.37504,-0.14779 0.0306,-0.0118 0.0681,-0.0265 0.0834,-0.0327 0.0791,-0.0316 0.37409,-0.13289 0.4445,-0.15257 0.0229,-0.006 0.076,-0.0218 0.11807,-0.0341 0.37157,-0.10923 0.82349,-0.20923 1.15987,-0.2566 0.18934,-0.0266 0.5844,-0.0562 0.75144,-0.0562 0.4779,0 1.02006,0.11043 1.40489,0.28616 0.15557,0.071 0.28204,0.13462 0.27725,0.1394 -0.002,0.002 -0.0664,-0.0167 -0.14233,-0.0423 -0.49058,-0.16517 -1.01201,-0.25784 -1.45088,-0.25781 -0.29609,1e-5 -0.81619,0.0616 -1.18226,0.1402 -0.0672,0.0144 -0.0713,0.0173 -0.0409,0.0285 0.0185,0.006 0.0423,0.009 0.0529,0.005 0.0104,-0.004 0.15466,-0.0204 0.32039,-0.0367 0.25828,-0.0253 0.35892,-0.0282 0.70418,-0.0218 0.38966,0.007 0.49939,0.0171 0.80565,0.0711 0.38406,0.0678 1.01854,0.28711 1.47421,0.50951 0.57432,0.28032 1.10731,0.6866 1.49624,1.14057 l 0.0803,0.0937 h 0.18663 c 0.15752,0 0.18663,-0.003 0.18663,-0.021 z m -15.36998,-0.0135 c 0.35179,-0.0177 0.9167,-0.0498 1.10432,-0.0628 0.11077,-0.008 0.35455,-0.0233 0.54173,-0.0348 0.18717,-0.0115 0.42157,-0.0272 0.5209,-0.0349 0.0993,-0.008 0.32435,-0.0233 0.50006,-0.0346 0.17571,-0.0113 0.42263,-0.0273 0.54867,-0.0356 0.85792,-0.056 1.83555,-0.0507 2.72952,0.0146 0.0993,0.007 0.24622,0.0171 0.32643,0.0222 l 0.14584,0.009 0.0549,-0.057 c 0.0333,-0.0345 0.0497,-0.0617 0.0416,-0.0689 -0.007,-0.006 -0.11635,-0.0225 -0.2424,-0.0355 -0.12605,-0.0129 -0.28233,-0.0292 -0.34726,-0.0361 -0.354,-0.0374 -0.67742,-0.0485 -1.41684,-0.0485 -0.7445,0 -0.91484,0.006 -1.41685,0.0488 -0.3812,0.0326 -0.65503,0.057 -0.77788,0.0695 -0.0726,0.007 -0.2351,0.023 -0.36116,0.0347 -0.12606,0.0117 -0.28232,0.0274 -0.34726,0.035 -0.0649,0.008 -0.24309,0.0262 -0.39587,0.0415 -0.27686,0.0275 -0.36112,0.0362 -0.74315,0.0772 -0.11079,0.0118 -0.25768,0.0271 -0.32644,0.034 -0.13823,0.0137 -0.31673,0.0341 -0.44451,0.0507 l -0.0834,0.0109 0.0556,0.009 c 0.0305,0.005 0.0837,0.007 0.11808,0.004 0.0343,-0.003 0.13126,-0.009 0.2153,-0.0129 z m 13.41636,-0.0634 c -0.12466,-0.0595 -0.58711,-0.23928 -0.79679,-0.30988 -0.4278,-0.14402 -0.78785,-0.21908 -1.24314,-0.25915 -0.3101,-0.0273 -1.36923,-0.003 -1.40414,0.0314 -0.006,0.006 0.0297,0.0104 0.0788,0.0105 0.17385,1.7e-4 0.75824,0.0271 0.91563,0.0422 0.26381,0.0254 0.52883,0.0547 0.63202,0.0701 0.34675,0.0517 0.40874,0.0623 0.6112,0.10501 0.11078,0.0233 0.35453,0.0834 0.41671,0.10269 0.0229,0.007 0.12606,0.0386 0.2292,0.0701 0.10314,0.0315 0.2219,0.0681 0.26392,0.0815 0.0421,0.0134 0.1264,0.0384 0.18753,0.0555 0.0611,0.0171 0.12362,0.036 0.1389,0.042 0.0153,0.006 0.0332,0.008 0.0397,0.003 0.006,-0.003 -0.0247,-0.0244 -0.0695,-0.0457 z m 0.32283,0.0209 c -0.0427,-0.0427 -0.40902,-0.25346 -0.61949,-0.35645 -0.35607,-0.1742 -0.65644,-0.27577 -1.09735,-0.37107 -0.071,-0.0154 -0.27475,-0.0464 -0.47924,-0.0732 -0.20909,-0.0273 -1.05255,-0.023 -1.31266,0.006 -0.54707,0.0627 -1.02615,0.16727 -1.46313,0.31941 -0.0622,0.0216 -0.0759,0.031 -0.0589,0.0405 0.0122,0.006 0.0269,0.009 0.0329,0.006 0.0122,-0.008 0.29036,-0.0665 0.49605,-0.10512 0.71897,-0.13492 1.46667,-0.18253 2.08359,-0.13267 0.3149,0.0255 0.44543,0.0434 0.75704,0.1037 0.23744,0.0459 0.68082,0.17889 0.88205,0.26438 0.0153,0.006 0.1528,0.0631 0.30561,0.12596 0.15279,0.0629 0.30905,0.12804 0.34726,0.14504 0.12407,0.0553 0.16298,0.0635 0.12637,0.0269 z m 0.30337,-0.0215 c -0.0754,-0.0793 -0.38034,-0.29819 -0.59345,-0.42599 -0.61525,-0.36894 -1.1033,-0.53616 -1.89905,-0.65065 -0.23583,-0.0339 -0.87512,-0.0416 -1.15292,-0.0137 -0.12605,0.0126 -0.26045,0.0286 -0.29864,0.0355 -0.0382,0.006 -0.13197,0.0226 -0.20837,0.0349 -0.14589,0.0235 -0.15491,0.0254 -0.40978,0.084 -0.42147,0.0969 -0.94894,0.2718 -1.29875,0.43054 -0.0382,0.0173 -0.0935,0.0415 -0.12299,0.0537 l -0.0535,0.0222 0.0285,0.0453 c 0.0157,0.0249 0.0367,0.0504 0.0466,0.0568 0.0113,0.007 0.11272,-0.025 0.27295,-0.0871 0.65743,-0.25452 1.21256,-0.40036 1.84956,-0.48588 0.66452,-0.0892 1.45722,-0.0406 2.12344,0.13016 0.47768,0.12245 0.77271,0.25779 1.52978,0.70177 0.21442,0.12575 0.25529,0.14077 0.18666,0.0686 z m -14.17451,-0.0266 c 0.1337,-0.0149 0.29934,-0.0336 0.3681,-0.0415 0.0688,-0.008 0.21565,-0.0236 0.32642,-0.0348 0.11079,-0.0113 0.26392,-0.0269 0.34033,-0.0348 0.0764,-0.008 0.23893,-0.0236 0.36116,-0.0351 0.12224,-0.0115 0.2785,-0.0271 0.34726,-0.0346 0.0688,-0.008 0.22815,-0.023 0.3542,-0.0344 0.12607,-0.0114 0.29171,-0.0272 0.36812,-0.0349 0.14415,-0.0148 0.48453,-0.0449 0.78481,-0.0696 0.71548,-0.0588 1.38246,-0.0774 2.03475,-0.0566 0.63548,0.0203 1.35597,0.0664 1.44024,0.0923 0.0221,0.006 0.12268,-0.0676 0.12268,-0.0907 0,-0.0149 -0.12698,-0.0254 -0.62507,-0.0519 -0.8174,-0.0436 -2.16861,-0.0324 -2.85453,0.0238 -0.0917,0.008 -0.28544,0.0231 -0.4306,0.0348 -0.14516,0.0116 -0.32019,0.0272 -0.38894,0.0347 -0.0688,0.008 -0.22503,0.0231 -0.34727,0.0349 -0.12224,0.0117 -0.27225,0.0273 -0.33338,0.0347 -0.0611,0.007 -0.20176,0.0229 -0.31253,0.0343 -0.11078,0.0115 -0.25455,0.0271 -0.31948,0.0347 -0.0649,0.008 -0.20559,0.0234 -0.31255,0.0349 -0.10695,0.0117 -0.24447,0.0272 -0.30559,0.0346 -0.0611,0.008 -0.20489,0.0233 -0.31948,0.0351 -0.1146,0.0118 -0.26149,0.0275 -0.32643,0.0349 -0.0649,0.007 -0.1705,0.0191 -0.23456,0.0261 -0.11029,0.012 -0.14979,0.0304 -0.13075,0.0613 0.004,0.007 0.0398,0.009 0.0789,0.003 0.0391,-0.005 0.18045,-0.0212 0.31414,-0.0362 z m 7.74056,-0.008 c 0.12229,-0.0253 0.27774,-0.0791 0.28416,-0.0983 0.009,-0.0265 -0.40369,-0.46501 -0.4692,-0.4989 -0.0306,-0.0159 -0.0422,-0.0156 -0.0743,0.002 -0.054,0.028 -0.18199,0.13697 -0.37946,0.32292 -0.12966,0.1221 -0.16651,0.16434 -0.15521,0.17796 0.0177,0.0215 0.15555,0.0686 0.27807,0.0952 0.12202,0.0266 0.38809,0.0266 0.516,4e-5 z m -7.60166,-0.10328 c 0.0573,-0.008 0.20419,-0.0236 0.32643,-0.0354 0.12224,-0.0119 0.26601,-0.0273 0.31949,-0.0345 0.0535,-0.007 0.15661,-0.0197 0.2292,-0.0281 0.15721,-0.0182 0.27836,-0.0327 0.52089,-0.0623 0.0993,-0.0121 0.23059,-0.0278 0.2917,-0.0348 0.0611,-0.007 0.16739,-0.0195 0.23613,-0.0278 0.92725,-0.1116 1.67076,-0.16145 2.67397,-0.17936 0.62831,-0.0112 1.63403,-6.5e-4 2.04264,0.0213 l 0.17437,0.009 0.0515,-0.0451 c 0.0282,-0.0248 0.0515,-0.0497 0.0515,-0.0553 0,-0.0202 -0.27545,-0.0497 -0.9376,-0.10054 -0.30087,-0.0231 -1.79199,-0.0229 -2.11833,3.3e-4 -0.3679,0.0261 -0.73022,0.0566 -0.85427,0.0717 -0.0611,0.008 -0.18927,0.0231 -0.28476,0.0348 -0.0955,0.0116 -0.21427,0.0273 -0.26392,0.0347 -0.0497,0.008 -0.15593,0.0231 -0.23615,0.035 -0.22397,0.0329 -0.54149,0.0826 -0.66674,0.10435 -0.0421,0.007 -0.23268,0.0384 -0.42367,0.0689 -0.19099,0.0307 -0.38165,0.0617 -0.42367,0.0692 -0.0421,0.007 -0.17953,0.0296 -0.30559,0.0491 -0.12606,0.0196 -0.30492,0.0479 -0.39745,0.0628 -0.0926,0.0149 -0.17381,0.0277 -0.18059,0.0282 -0.0144,0.002 0.0367,0.0243 0.0571,0.0259 0.008,6.6e-4 0.0608,-0.005 0.11807,-0.0127 z m 13.99481,-0.12009 c -0.44456,-0.41529 -0.97037,-0.72657 -1.56964,-0.92917 -0.21083,-0.0713 -0.54469,-0.14258 -0.85428,-0.18249 -0.26101,-0.0337 -0.98362,-0.0337 -1.24321,3e-5 -0.38076,0.0494 -0.65825,0.10419 -1.0279,0.20315 -0.1793,0.048 -0.62418,0.19513 -0.73621,0.24349 -0.023,0.01 -0.12919,0.0539 -0.23614,0.0976 -0.10695,0.0439 -0.22572,0.0939 -0.26392,0.11126 -0.0382,0.0174 -0.10573,0.0476 -0.15004,0.0672 -0.0872,0.0384 -0.0903,0.0524 -0.0248,0.11176 0.0289,0.0261 0.0306,0.0257 0.15062,-0.0304 0.0668,-0.0313 0.19332,-0.086 0.28118,-0.1216 0.0879,-0.0356 0.17224,-0.0698 0.18752,-0.0761 0.10829,-0.0449 0.42756,-0.15119 0.61814,-0.20584 0.61928,-0.17759 1.13974,-0.25189 1.76681,-0.25223 0.64692,-3.3e-4 1.12989,0.0704 1.62944,0.23887 0.3693,0.1245 0.93019,0.4148 1.39406,0.72149 0.0792,0.0523 0.15105,0.0949 0.15975,0.0946 0.009,-3.3e-4 -0.0279,-0.0415 -0.0814,-0.0914 z m -14.14065,0.0437 c 0.11459,-0.0189 0.24898,-0.0404 0.29864,-0.0481 0.19097,-0.0292 0.47619,-0.074 0.62508,-0.098 0.0421,-0.006 0.13578,-0.0218 0.20836,-0.0335 0.0726,-0.0117 0.22884,-0.0374 0.34726,-0.057 0.11842,-0.0196 0.25595,-0.0419 0.3056,-0.0493 0.0497,-0.007 0.12779,-0.0198 0.17362,-0.0278 0.17835,-0.0308 0.24124,-0.041 0.382,-0.0616 0.0802,-0.0118 0.18023,-0.0274 0.22226,-0.0346 0.0717,-0.0123 0.27547,-0.04 0.51395,-0.0699 1.2,-0.15048 2.33409,-0.17121 3.36287,-0.0616 0.10388,0.0111 0.21207,0.0202 0.24043,0.0202 0.058,0 0.0567,-0.0209 -0.002,-0.0316 -0.0211,-0.003 -0.11026,-0.026 -0.19812,-0.0489 -0.20151,-0.0528 -0.47071,-0.10587 -0.69452,-0.13726 -0.24051,-0.0337 -1.13479,-0.0337 -1.58354,-9e-5 -0.43553,0.0327 -0.85299,0.076 -1.02791,0.10677 -0.17072,0.0299 -0.31633,0.0567 -0.38198,0.0698 -0.0628,0.0126 -0.56536,0.11084 -0.66676,0.13031 -0.023,0.004 -0.12293,0.0241 -0.22225,0.0437 -0.22174,0.0439 -0.5032,0.0956 -0.71536,0.13164 -0.0879,0.0149 -0.19413,0.0333 -0.23615,0.0409 -0.0726,0.013 -0.25218,0.0402 -0.46533,0.0702 -0.10874,0.0154 -0.51584,0.0664 -0.62911,0.0789 -0.056,0.006 -0.08,0.0163 -0.10071,0.0427 -0.0556,0.0707 -0.0453,0.0717 0.24365,0.0242 z m 0.20835,-0.17423 c 0.28949,-0.0303 0.38886,-0.043 0.5973,-0.077 0.0764,-0.0125 0.17329,-0.028 0.21531,-0.0346 0.089,-0.0139 0.53513,-0.10218 0.66675,-0.13188 0.1004,-0.0227 0.39168,-0.0907 0.56256,-0.13133 0.0611,-0.0145 0.17989,-0.0428 0.26393,-0.0628 0.0841,-0.02 0.29031,-0.0699 0.45838,-0.11097 0.42671,-0.10426 0.68626,-0.16548 0.88206,-0.20802 0.0573,-0.0124 0.12919,-0.0283 0.15974,-0.0353 0.0528,-0.0121 0.1956,-0.0404 0.34727,-0.0692 0.39812,-0.0753 1.00226,-0.10757 1.29473,-0.069 0.36803,0.0485 0.50915,0.0788 0.75414,0.16132 0.10485,0.0354 0.47307,0.21132 0.63678,0.30429 0.0485,0.0275 0.0907,0.0475 0.0938,0.0443 0.0159,-0.0159 -0.19611,-0.18704 -0.38571,-0.31162 -0.2206,-0.14496 -0.5518,-0.28736 -0.78933,-0.33938 -0.26226,-0.0575 -0.35915,-0.0675 -0.65345,-0.0676 -0.40945,-1.7e-4 -0.74562,0.0421 -1.33986,0.16813 -0.0764,0.0162 -0.1639,0.0347 -0.19447,0.0409 -0.0596,0.0123 -0.63862,0.15866 -0.95845,0.24215 -0.20924,0.0547 -0.92212,0.23433 -0.97929,0.24684 -0.0191,0.004 -0.0769,0.0175 -0.12849,0.0297 -0.1322,0.0312 -0.27063,0.0625 -0.34379,0.078 -0.0344,0.007 -0.10626,0.0227 -0.15974,0.0345 -0.39179,0.0862 -0.80372,0.15519 -1.1282,0.18885 l -0.16976,0.0176 -0.0345,0.0485 c -0.0594,0.0835 -0.0561,0.0839 0.3323,0.0435 z m -0.0278,-0.24966 c 0.19311,-0.0251 0.51148,-0.0812 0.79177,-0.13943 0.16384,-0.0341 0.79261,-0.19087 1.13904,-0.28407 0.0459,-0.0123 0.15523,-0.0414 0.24307,-0.0646 0.0879,-0.0231 0.2035,-0.0536 0.25698,-0.0677 0.0535,-0.0141 0.17219,-0.0455 0.2638,-0.0696 0.77396,-0.20423 1.14055,-0.29211 1.50032,-0.35967 0.38293,-0.0719 0.5776,-0.0908 0.93761,-0.091 0.46583,-1.8e-4 0.72767,0.0442 1.0418,0.1767 0.25091,0.10584 0.42955,0.22185 0.70742,0.45937 0.12224,0.1045 0.10927,0.0573 -0.0281,-0.10235 -0.29456,-0.34227 -0.59467,-0.53764 -0.99185,-0.64575 -0.59297,-0.1614 -1.35853,-0.12759 -2.34057,0.10335 -0.25715,0.0604 -0.73191,0.19049 -1.37518,0.3766 -0.11076,0.0321 -0.22015,0.0633 -0.24307,0.0693 -0.0229,0.006 -0.15419,0.0435 -0.29171,0.083 -0.13752,0.0396 -0.26878,0.077 -0.2917,0.0831 -0.0229,0.006 -0.0792,0.0218 -0.12502,0.0349 -0.38,0.10834 -0.76751,0.19805 -0.99318,0.22994 -0.0649,0.009 -0.16495,0.0238 -0.22225,0.0326 l -0.10418,0.0159 -0.0388,0.08 c -0.0443,0.0915 -0.0392,0.11367 0.0231,0.10088 0.0239,-0.005 0.0872,-0.0147 0.14069,-0.0216 z m 7.7801,-0.0616 c 0.069,-0.0338 0.22301,-0.10288 0.31422,-0.14093 0.048,-0.0201 0.10603,-0.045 0.12894,-0.0554 0.023,-0.0104 0.1448,-0.0591 0.27085,-0.10816 0.34997,-0.13611 0.59704,-0.21702 1.00014,-0.32755 0.36621,-0.10044 0.36389,-0.0997 0.40977,-0.1213 0.0388,-0.0183 0.035,-0.019 -0.0556,-0.0105 -0.13136,0.0122 -0.46521,0.0679 -0.64591,0.10775 -0.33441,0.0737 -0.80626,0.22791 -1.08595,0.35484 -0.033,0.0149 -0.1069,0.0473 -0.16421,0.0718 -0.13297,0.0569 -0.31066,0.1386 -0.31849,0.14643 -0.007,0.007 0.0833,0.10285 0.0968,0.10285 0.005,0 0.0272,-0.009 0.0494,-0.0196 z m -0.91745,-0.0629 c -0.0362,-0.04 -0.50796,-0.26918 -0.66048,-0.32088 -0.3571,-0.12103 -0.6425,-0.16597 -1.05678,-0.16641 -0.37057,-3.4e-4 -0.561,0.0194 -1.06849,0.1111 -0.0344,0.006 -0.13751,0.0282 -0.2292,0.0487 -0.0917,0.0206 -0.18387,0.0408 -0.20487,0.0447 -0.0209,0.004 -0.0382,0.0129 -0.0382,0.0197 0,0.0156 0.0694,0.015 0.23615,-0.002 0.92975,-0.0945 1.65346,-0.0763 2.21947,0.0557 0.2008,0.0469 0.24455,0.0578 0.28084,0.07 0.0191,0.006 0.1191,0.0375 0.22225,0.0689 0.10314,0.0315 0.20003,0.0627 0.21531,0.0693 0.0834,0.0362 0.11634,0.0367 0.084,7.2e-4 z m 0.95767,-0.52883 c 0.59159,-0.42404 1.05089,-0.70921 1.59059,-0.98757 0.0649,-0.0335 0.1212,-0.0647 0.12502,-0.0693 0.003,-0.004 0.0164,-0.0123 0.0278,-0.0171 0.0115,-0.005 -7.1e-4,-0.005 -0.0278,-3.3e-4 -0.17675,0.0309 -0.83062,0.34133 -1.1807,0.56065 -0.2191,0.13724 -0.49789,0.3608 -0.66329,0.53189 -0.16523,0.17091 -0.12801,0.16565 0.12838,-0.0182 z"
         style="fill:#000000;stroke-width:0.33826992" />
      <rect
         y="124.3843"
         x="161.92696"
         height="1.4901105"
         width="1.4901105"
         id="rect4548"
         style="fill:#6bba00;fill-opacity:1;stroke:none;stroke-width:0.18041064" />
      <rect
         y="122.18221"
         x="161.92696"
         height="1.4901105"
         width="1.4901105"
         id="rect4550"
         style="fill:#5a40c6;fill-opacity:1;stroke:none;stroke-width:0.18041064" />
      <rect
         y="119.98013"
         x="161.92696"
         height="1.4901105"
         width="1.4901105"
         id="rect4552"
         style="fill:#2cabb7;fill-opacity:1;stroke:none;stroke-width:0.18041064" />
      <g
         style="stroke-width:0.92076904"
         transform="matrix(1.2053925,-0.68920235,0.68920235,1.2053925,-144.34815,-125.34658)"
         id="g4606">
        <rect
           transform="rotate(-161.29062)"
           style="fill:#2cabb7;fill-opacity:1;stroke:none;stroke-width:0.12312723"
           id="rect4554"
           width="0.67468822"
           height="0.67468822"
           x="-195.5495"
           y="-215.66837" />
        <rect
           transform="rotate(10.391128)"
           style="fill:#000000;fill-opacity:1;stroke:none;stroke-width:0.14995557"
           id="rect4556"
           width="0.82169682"
           height="0.82169682"
           x="161.10788"
           y="239.74594" />
        <rect
           transform="rotate(-164.4875)"
           style="fill:#2cabb7;fill-opacity:1;stroke:none;stroke-width:0.07741032"
           id="rect4558"
           width="0.42417774"
           height="0.42417774"
           x="-179.81108"
           y="-224.29324" />
        <rect
           transform="rotate(125.43668)"
           style="fill:#000000;fill-opacity:1;stroke:none;stroke-width:0.15105312"
           id="rect4560"
           width="0.82771087"
           height="0.82771087"
           x="149.86017"
           y="-250.42656" />
        <rect
           transform="rotate(15.09809)"
           style="fill:#000000;fill-opacity:1;stroke:none;stroke-width:0.12766425"
           id="rect4562"
           width="0.69954926"
           height="0.69954926"
           x="183.42064"
           y="224.61836" />
        <rect
           transform="rotate(149.9718)"
           style="fill:#000000;fill-opacity:1;stroke:none;stroke-width:0.09225312"
           id="rect4564"
           width="0.50551033"
           height="0.50551033"
           x="34.811729"
           y="-287.20453" />
        <rect
           transform="rotate(-170.31543)"
           style="fill:#6bba00;fill-opacity:1;stroke:none;stroke-width:0.09449143"
           id="rect4566"
           width="0.51777536"
           height="0.51777536"
           x="-157.96011"
           y="-244.3667" />
        <rect
           transform="rotate(54.119604)"
           style="fill:#5a40c6;fill-opacity:1;stroke:none;stroke-width:0.18496071"
           id="rect4568"
           width="1.0135109"
           height="1.0135109"
           x="281.87439"
           y="59.208328" />
        <rect
           transform="rotate(5.266478)"
           style="fill:#000000;fill-opacity:1;stroke:none;stroke-width:0.09025566"
           id="rect4570"
           width="0.4945651"
           height="0.4945651"
           x="140.46008"
           y="250.34894" />
        <rect
           transform="rotate(-71.718974)"
           style="fill:#6bba00;fill-opacity:1;stroke:none;stroke-width:0.10076099"
           id="rect4572"
           width="0.5521301"
           height="0.5521301"
           x="-215.27316"
           y="196.41737" />
        <rect
           transform="rotate(123.54293)"
           style="fill:#5a40c6;fill-opacity:1;stroke:none;stroke-width:0.17128891"
           id="rect4574"
           width="0.93859488"
           height="0.93859488"
           x="156.34186"
           y="-244.17076" />
        <rect
           transform="rotate(153.35207)"
           style="fill:#000000;fill-opacity:1;stroke:none;stroke-width:0.09694861"
           id="rect4576"
           width="0.53123975"
           height="0.53123975"
           x="11.026254"
           y="-291.51956" />
        <rect
           transform="rotate(170.33872)"
           style="fill:#5a40c6;fill-opacity:1;stroke:none;stroke-width:0.09195429"
           id="rect4578"
           width="0.50387287"
           height="0.50387287"
           x="-70.937553"
           y="-279.21835" />
        <rect
           transform="rotate(69.680797)"
           style="fill:#2cabb7;fill-opacity:1;stroke:none;stroke-width:0.17268194"
           id="rect4580"
           width="0.94622821"
           height="0.94622821"
           x="285.57562"
           y="-15.817171" />
        <rect
           transform="rotate(35.08619)"
           style="fill:#6bba00;fill-opacity:1;stroke:none;stroke-width:0.11783554"
           id="rect4582"
           width="0.64569175"
           height="0.64569175"
           x="248.17833"
           y="148.56404" />
        <rect
           transform="rotate(-99.841118)"
           style="fill:#5a40c6;fill-opacity:1;stroke:none;stroke-width:0.07902351"
           id="rect4584"
           width="0.43301734"
           height="0.43301734"
           x="-283.40411"
           y="67.878235" />
        <rect
           transform="rotate(-51.53007)"
           style="fill:#6bba00;fill-opacity:1;stroke:none;stroke-width:0.10582407"
           id="rect4586"
           width="0.5798738"
           height="0.5798738"
           x="-133.356"
           y="257.16672" />
        <rect
           transform="rotate(-70.044811)"
           style="fill:#2cabb7;fill-opacity:1;stroke:none;stroke-width:0.13337642"
           id="rect4588"
           width="0.73084962"
           height="0.73084962"
           x="-209.89034"
           y="201.25838" />
        <rect
           transform="rotate(-35.026355)"
           style="fill:#5a40c6;fill-opacity:1;stroke:none;stroke-width:0.13732812"
           id="rect4590"
           width="0.75250334"
           height="0.75250334"
           x="-54.426929"
           y="284.77121" />
        <rect
           transform="rotate(-104.52512)"
           style="fill:#6bba00;fill-opacity:1;stroke:none;stroke-width:0.20144092"
           id="rect4592"
           width="1.103816"
           height="1.103816"
           x="-286.17093"
           y="50.253113" />
        <rect
           transform="rotate(76.12959)"
           style="fill:#5a40c6;fill-opacity:1;stroke:none;stroke-width:0.10694689"
           id="rect4594"
           width="0.58602637"
           height="0.58602637"
           x="285.37677"
           y="-53.65316" />
        <rect
           transform="rotate(138.99158)"
           style="fill:#2cabb7;fill-opacity:1;stroke:none;stroke-width:0.08255065"
           id="rect4596"
           width="0.4523446"
           height="0.4523446"
           x="86.291458"
           y="-277.87604" />
        <rect
           transform="rotate(113.08068)"
           style="fill:#000000;fill-opacity:1;stroke:none;stroke-width:0.12644438"
           id="rect4598"
           width="0.69286484"
           height="0.69286484"
           x="199.55545"
           y="-210.35114" />
        <rect
           transform="rotate(-46.032831)"
           style="fill:#6bba00;fill-opacity:1;stroke:none;stroke-width:0.15828942"
           id="rect4600"
           width="0.86736298"
           height="0.86736298"
           x="-112.20277"
           y="265.10577" />
        <rect
           transform="rotate(-72.914658)"
           style="fill:#5a40c6;fill-opacity:1;stroke:none;stroke-width:0.07350032"
           id="rect4602"
           width="0.40275249"
           height="0.40275249"
           x="-218.86305"
           y="192.68559" />
        <rect
           transform="rotate(-116.78805)"
           style="fill:#5a40c6;fill-opacity:1;stroke:none;stroke-width:0.18832801"
           id="rect4604"
           width="1.0319625"
           height="1.0319625"
           x="-288.43219"
           y="-17.121614" />
      </g>
      <g
         id="g6876"
         style="stroke-width:0.2780911">
        <text
           xml:space="preserve"
           style="color:#000000;font-style:normal;font-variant:normal;font-weight:normal;font-stretch:normal;font-size:2.93274832px;line-height:100%;font-family:'Linux Libertine O';-inkscape-font-specification:'Linux Libertine O, Normal';text-indent:0;text-align:start;text-decoration:none;text-decoration-line:none;text-decoration-style:solid;text-decoration-color:#000000;letter-spacing:0px;word-spacing:0px;text-transform:none;writing-mode:lr-tb;direction:ltr;baseline-shift:baseline;text-anchor:start;white-space:normal;clip-rule:nonzero;display:inline;overflow:visible;visibility:visible;opacity:1;isolation:auto;mix-blend-mode:normal;color-interpolation:sRGB;color-interpolation-filters:linearRGB;solid-color:#000000;solid-opacity:1;vector-effect:none;fill:#000000;fill-opacity:1;fill-rule:nonzero;stroke:none;stroke-width:0.42283741px;stroke-linecap:butt;stroke-linejoin:miter;stroke-miterlimit:4;stroke-dasharray:none;stroke-dashoffset:0;stroke-opacity:1;color-rendering:auto;image-rendering:auto;shape-rendering:auto;text-rendering:auto;enable-background:accumulate"
           x="164.59302"
           y="122.69398"
           id="text6874"><tspan
             x="164.59302"
             y="122.69398"
             style="vector-effect:none;fill:#000000;fill-opacity:1;stroke:none;stroke-width:0.42283741px;stroke-linecap:butt;stroke-linejoin:miter;stroke-miterlimit:4;stroke-dasharray:none;stroke-dashoffset:0;stroke-opacity:1"
             id="tspan6870">freie Software</tspan><tspan
             id="tspan6872"
             x="164.59302"
             y="125.62672"
             style="vector-effect:none;fill:#000000;fill-opacity:1;stroke:none;stroke-width:0.42283741px;stroke-linecap:butt;stroke-linejoin:miter;stroke-miterlimit:4;stroke-dasharray:none;stroke-dashoffset:0;stroke-opacity:1">freies Wissen</tspan></text>
      </g>
      <path
         id="path2654"
         d="m 169.71378,117.3666 c -0.052,-0.009 -0.0959,-0.0176 -0.0973,-0.0191 -0.006,-0.006 0.0847,-0.77341 0.12233,-1.04 l 0.0371,-0.26331 -5.8e-4,-0.0975 c -4.6e-4,-0.0536 -0.002,-0.18318 -0.003,-0.28788 l -0.002,-0.19036 -0.0812,0.0572 c -0.0446,0.0314 -0.0819,0.0592 -0.0827,0.0616 -5.8e-4,0.002 -0.0123,0.11944 -0.0254,0.25997 -0.0132,0.14052 -0.0246,0.25613 -0.0253,0.2569 -0.002,0.002 -0.15725,-0.005 -0.16008,-0.008 -0.002,-0.002 -10e-4,-0.13665 5.8e-4,-0.30029 0.003,-0.29435 0.003,-0.2977 0.0119,-0.31314 0.005,-0.009 0.0152,-0.0219 0.0234,-0.0297 0.0124,-0.0117 0.37583,-0.27127 0.44013,-0.31432 0.0375,-0.0251 0.0893,-0.0357 0.13959,-0.0286 l 0.032,0.005 0.12288,-0.0561 c 0.0676,-0.0308 0.15365,-0.0699 0.19127,-0.0868 l 0.0684,-0.0308 0.11057,-0.23232 c 0.0608,-0.12777 0.11166,-0.23348 0.11299,-0.23491 0.001,-0.001 0.0323,0.0181 0.0687,0.0435 l 0.0663,0.0461 0.1677,0.1979 c 0.0922,0.10886 0.16858,0.19923 0.16966,0.20084 10e-4,0.002 0.0801,0.042 0.17552,0.0897 l 0.17359,0.0868 0.0273,-0.007 c 0.0313,-0.008 0.081,-0.009 0.10717,-0.002 0.0343,0.009 0.0674,0.0289 0.0963,0.0567 0.0499,0.0479 0.3683,0.4084 0.37638,0.42616 0.004,0.009 0.008,0.0249 0.009,0.0351 0.003,0.0346 0.0289,0.51722 0.0271,0.51893 -0.002,0.003 -0.14652,0.0177 -0.14863,0.0156 -0.001,-10e-4 -0.0203,-0.10933 -0.0429,-0.24071 l -0.0411,-0.23888 -0.0593,-0.0667 -0.0593,-0.0667 -0.002,0.0953 c -0.001,0.0524 -0.002,0.15238 -0.003,0.2221 l -4e-4,0.12678 0.10246,0.42323 c 0.0564,0.23277 0.1013,0.42373 0.0999,0.42434 -0.001,5.8e-4 -0.0286,-0.002 -0.0605,-0.007 -0.0319,-0.004 -0.0588,-0.007 -0.0598,-0.006 -10e-4,0.001 0.009,0.11501 0.0229,0.25341 0.0136,0.13841 0.0237,0.25261 0.0225,0.25378 -0.002,0.002 -0.19855,0.0296 -0.2003,0.0278 -5.8e-4,-5.8e-4 -0.0184,-0.12785 -0.0397,-0.28282 -0.0212,-0.15496 -0.0394,-0.28251 -0.0403,-0.28343 -0.003,-0.003 -0.12867,-0.0188 -0.13088,-0.0165 -10e-4,10e-4 -0.0195,0.0957 -0.0408,0.21008 -0.0213,0.1144 -0.0394,0.20984 -0.0402,0.21211 -0.001,0.003 -0.029,-1.8e-4 -0.0828,-0.009 -0.0448,-0.007 -0.0862,-0.0128 -0.0922,-0.0129 -0.006,-1.2e-4 -0.0118,-0.003 -0.013,-0.006 -0.001,-0.003 0.004,-0.0957 0.0118,-0.20577 0.008,-0.11005 0.014,-0.20537 0.014,-0.21182 l -3e-5,-0.0117 -0.10044,-0.0129 c -0.0552,-0.007 -0.10089,-0.0135 -0.10145,-0.014 -5.7e-4,-5.6e-4 0.0678,-0.18079 0.1519,-0.40049 l 0.15292,-0.39946 0.003,-0.21454 c 0.002,-0.118 0.003,-0.25954 0.004,-0.31454 l 0.001,-0.1 -0.17097,-0.0853 c -0.14149,-0.0706 -0.17343,-0.088 -0.18528,-0.10104 -0.008,-0.009 -0.0687,-0.1012 -0.13524,-0.20563 -0.0665,-0.10443 -0.12194,-0.18994 -0.12319,-0.19 -0.001,-8e-5 -0.03,0.0763 -0.064,0.16977 -0.0616,0.16953 -0.0715,0.19138 -0.0943,0.20742 -0.006,0.004 -0.0934,0.0448 -0.19394,0.0901 -0.10058,0.0453 -0.18317,0.0828 -0.18354,0.0834 -3.6e-4,5.8e-4 0.001,0.16611 0.003,0.36778 l 0.003,0.36667 0.0727,0.26915 0.0727,0.26915 -10e-4,0.16968 c -5.8e-4,0.0933 -0.002,0.25218 -0.004,0.35302 l -0.002,0.18333 -0.10261,0.003 c -0.0564,0.002 -0.10349,0.002 -0.10457,10e-4 -10e-4,-10e-4 -0.0123,-0.15179 -0.0249,-0.33492 l -0.023,-0.33296 -0.0373,-0.13819 c -0.0205,-0.076 -0.0378,-0.13869 -0.0384,-0.13929 -5.7e-4,-5.8e-4 -0.009,0.0598 -0.0197,0.13429 -0.0123,0.0894 -0.043,0.26946 -0.0905,0.53002 -0.0396,0.21705 -0.0719,0.39654 -0.0719,0.39886 0,0.006 0.001,0.006 -0.10829,-0.0133 z m 0.14924,-2.31679 c -0.20366,-0.0395 -0.27475,-0.28797 -0.12264,-0.4288 0.0501,-0.0464 0.11025,-0.0677 0.18029,-0.0639 0.0661,0.003 0.11551,0.0258 0.16328,0.0733 0.0233,0.0232 0.0332,0.0367 0.0456,0.0624 0.0489,0.10173 0.0312,0.20844 -0.0477,0.28658 -0.048,0.0477 -0.0951,0.069 -0.16234,0.0736 -0.0173,0.001 -0.0404,-1.3e-4 -0.0565,-0.003 z m 1.62607,-0.01 c -0.071,-0.0192 -0.1269,-0.0645 -0.15946,-0.12917 -0.0187,-0.037 -0.0261,-0.0695 -0.0259,-0.11298 2.9e-4,-0.0706 0.0226,-0.12415 0.0725,-0.17364 0.0339,-0.0336 0.0619,-0.0508 0.10365,-0.0634 0.107,-0.0325 0.22252,0.0107 0.28206,0.1053 0.0297,0.0472 0.0399,0.0879 0.0368,0.14836 -0.003,0.0637 -0.026,0.11484 -0.0716,0.1605 -0.0282,0.0282 -0.0567,0.046 -0.0958,0.0598 -0.0393,0.0139 -0.10188,0.0162 -0.14227,0.005 z m -1.30367,-0.68499 c -0.0147,-0.0124 -0.0184,-0.028 -0.0109,-0.046 0.009,-0.0218 0.0217,-0.026 0.0785,-0.026 0.0553,0 0.0679,0.004 0.0783,0.024 0.009,0.0166 0.005,0.0354 -0.0105,0.048 -0.0115,0.01 -0.0135,0.01 -0.0678,0.01 -0.0542,0 -0.0563,-3.2e-4 -0.0677,-0.01 z m 0.82997,-0.002 c -0.0216,-0.0216 -0.0117,-0.0615 0.0171,-0.0687 0.005,-0.001 0.0325,-0.002 0.0605,-0.001 0.0474,0.001 0.0515,0.002 0.0608,0.0107 0.0188,0.0177 0.0168,0.051 -0.004,0.0645 -0.007,0.005 -0.0213,0.006 -0.0662,0.006 h -0.057 z m -0.66945,-0.29403 c -0.038,-0.038 -0.0402,-0.0411 -0.0402,-0.0563 0,-0.0311 0.0312,-0.0523 0.0571,-0.0388 0.0168,0.009 0.0785,0.0737 0.0816,0.0858 0.007,0.0266 -0.0121,0.0495 -0.0405,0.0495 -0.0173,0 -0.0187,-0.001 -0.0579,-0.0402 z m 0.56489,0.0338 c -0.012,-0.008 -0.0198,-0.0278 -0.017,-0.0422 0.003,-0.0173 0.068,-0.0828 0.0875,-0.0886 0.0207,-0.006 0.0403,0.003 0.0485,0.0225 0.009,0.0219 0.002,0.0344 -0.0409,0.077 -0.0353,0.0347 -0.0396,0.0377 -0.0537,0.0377 -0.008,0 -0.0194,-0.003 -0.0244,-0.006 z m -0.26991,-0.11426 -0.0114,-0.0114 v -0.0571 c 0,-0.0317 0.002,-0.0605 0.004,-0.0646 0.002,-0.004 0.009,-0.0102 0.0154,-0.0134 0.0178,-0.009 0.0334,-0.007 0.0478,0.006 l 0.0127,0.0114 v 0.0591 0.0592 l -0.0127,0.0114 c -0.0178,0.0159 -0.0399,0.0159 -0.0558,-1e-5 z"
         style="fill:#000000;stroke-width:0.2780911" />
    </g>
  </g>
</svg>
