<?xml version="1.0" encoding="UTF-8" standalone="no"?>
<svg
   width="100%"
   height="100%"
   viewBox="0 0 74 38"
   version="1.1"
   xml:space="preserve"
   style="fill-rule:evenodd;clip-rule:evenodd;stroke-linejoin:round;stroke-miterlimit:1.41421;"
   id="svg18"
   sodipodi:docname="schullogin.svg"
   inkscape:version="1.3 (0e150ed6c4, 2023-07-21)"
   xmlns:inkscape="http://www.inkscape.org/namespaces/inkscape"
   xmlns:sodipodi="http://sodipodi.sourceforge.net/DTD/sodipodi-0.dtd"
   xmlns="http://www.w3.org/2000/svg"
   xmlns:svg="http://www.w3.org/2000/svg"><defs
     id="defs18" /><sodipodi:namedview
     id="namedview18"
     pagecolor="#ffffff"
     bordercolor="#666666"
     borderopacity="1.0"
     inkscape:showpageshadow="2"
     inkscape:pageopacity="0.0"
     inkscape:pagecheckerboard="0"
     inkscape:deskcolor="#d1d1d1"
     inkscape:zoom="11.263158"
     inkscape:cx="57.88785"
     inkscape:cy="31.341121"
     inkscape:current-layer="svg18" /><rect
     style="fill:#ffffff;fill-rule:evenodd;stroke-width:0.840088;-inkscape-stroke:none;paint-order:stroke fill markers"
     id="rect18"
     width="74"
     height="38"
     x="0"
     y="0" /><g
     transform="matrix(0.296893,0,0,0.296893,-3.6817,-0.00231272)"
     id="g18"
     style="fill:#008080"><g
       id="g17"
       style="fill:#008080"><g
         id="g16"
         style="fill:#008080"><g
           id="Schrift"
           style="fill:#008080"><g
             id="g5"
             style="fill:#008080"><path
               d="M30.5,25.2C30.5,24.6 30.4,24 30.2,23.5C30,23 29.6,22.5 29.1,22C28.6,21.5 28,21.1 27.1,20.8C26.3,20.4 25.3,20.1 24.1,19.8C22.6,19.4 21.3,18.9 19.9,18.3C18.5,17.7 17.4,17 16.4,16.1C15.4,15.3 14.6,14.3 14,13.2C13.4,12.1 13.1,10.8 13.1,9.3C13.1,7.9 13.4,6.6 14,5.5C14.6,4.4 15.4,3.4 16.5,2.6C17.6,1.8 18.8,1.2 20.2,0.7C21.6,0.2 23.3,0 25,0C26.7,0 28.3,0.3 29.8,0.8C31.3,1.3 32.5,2 33.5,2.9C34.5,3.8 35.4,4.9 35.9,6.1C36.4,7.3 36.8,8.7 36.8,10.2L30.5,10.2C30.5,9.4 30.3,8.8 30.1,8.1C29.9,7.4 29.5,6.9 29,6.5C28.5,6.1 28,5.7 27.3,5.4C26.6,5.1 25.8,5 24.9,5C24,5 23.3,5.1 22.6,5.3C21.9,5.5 21.4,5.8 20.9,6.2C20.4,6.6 20.1,7 19.9,7.5C19.7,8 19.5,8.6 19.5,9.2C19.5,9.8 19.7,10.4 20,10.9C20.3,11.4 20.8,11.9 21.4,12.3C22,12.7 22.7,13.1 23.6,13.4C24.4,13.7 25.4,14.1 26.5,14.3C28,14.7 29.4,15.3 30.7,15.9C32,16.5 33.1,17.3 34,18.2C34.9,19.1 35.6,20.1 36.2,21.2C36.7,22.3 37,23.6 37,25C37,26.5 36.7,27.8 36.1,28.9C35.5,30 34.7,31 33.7,31.8C32.7,32.6 31.4,33.2 30,33.6C28.6,34 27,34.2 25.3,34.2C24.2,34.2 23.2,34.1 22.1,33.9C21,33.7 20,33.4 19.1,33C18.1,32.6 17.3,32.1 16.4,31.5C15.6,30.9 14.9,30.2 14.3,29.4C13.7,28.6 13.2,27.7 12.9,26.7C12.6,25.7 12.4,24.6 12.4,23.3L18.7,23.3C18.7,24.3 18.9,25.2 19.2,25.9C19.5,26.6 20,27.2 20.5,27.7C21,28.2 21.8,28.5 22.6,28.7C23.4,28.9 24.3,29 25.3,29C26.2,29 26.9,28.9 27.6,28.7C28.3,28.5 28.8,28.2 29.3,27.9C29.8,27.6 30.1,27.1 30.4,26.6C30.4,26.3 30.5,25.8 30.5,25.2Z"
               style="fill:#008080;fill-rule:nonzero"
               id="path1" /><path
               d="M64.8,23.4C64.7,25.1 64.3,26.6 63.7,27.9C63.1,29.2 62.2,30.4 61.2,31.3C60.2,32.2 58.9,33 57.5,33.5C56.1,34 54.5,34.3 52.7,34.3C50.7,34.3 49,33.9 47.4,33.2C45.9,32.5 44.6,31.5 43.5,30.1C42.5,28.8 41.7,27.2 41.1,25.4C40.5,23.6 40.3,21.5 40.3,19.3L40.3,15C40.3,12.8 40.6,10.8 41.2,8.9C41.8,7 42.6,5.5 43.7,4.2C44.8,2.9 46.1,1.9 47.6,1.1C49.1,0.3 50.9,0 52.8,0C54.6,0 56.3,0.3 57.7,0.8C59.1,1.3 60.4,2 61.4,3C62.4,4 63.2,5.1 63.8,6.5C64.4,7.9 64.7,9.5 64.9,11.2L58.5,11.2C58.4,10.2 58.3,9.3 58.1,8.6C57.9,7.8 57.5,7.2 57.1,6.7C56.7,6.2 56.1,5.8 55.4,5.6C54.7,5.3 53.9,5.2 53,5.2C52,5.2 51.1,5.4 50.4,5.8C49.7,6.2 49.1,6.9 48.6,7.7C48.1,8.5 47.8,9.5 47.5,10.7C47.2,11.9 47,13.4 47,14.9L47,19.4C47,22.7 47.5,25.1 48.4,26.7C49.3,28.3 50.8,29.1 52.8,29.1C54.5,29.1 55.8,28.7 56.8,27.8C57.8,26.9 58.3,25.5 58.4,23.4L64.8,23.4Z"
               style="fill:#008080;fill-rule:nonzero"
               id="path2" /><path
               d="M92.2,33.9L85.8,33.9L85.8,19.4L76.3,19.4L76.3,33.9L69.9,33.9L69.9,0.5L76.3,0.5L76.3,14.2L85.8,14.2L85.8,0.5L92.2,0.5L92.2,33.9Z"
               style="fill:#008080;fill-rule:nonzero"
               id="path3" /><path
               d="M120.8,0.5L120.8,22.7C120.8,24.6 120.5,26.2 120,27.7C119.5,29.2 118.7,30.4 117.8,31.4C116.8,32.4 115.6,33.2 114.2,33.7C112.8,34.2 111.2,34.5 109.4,34.5C107.7,34.5 106.2,34.2 104.8,33.7C103.4,33.2 102.3,32.4 101.3,31.4C100.3,30.4 99.6,29.2 99.1,27.7C98.6,26.2 98.3,24.6 98.3,22.7L98.3,0.5L104.8,0.5L104.8,22.7C104.8,24.9 105.2,26.5 106,27.6C106.8,28.7 107.9,29.3 109.4,29.3C111,29.3 112.2,28.7 113,27.6C113.8,26.5 114.3,24.9 114.3,22.7L114.3,0.5L120.8,0.5Z"
               style="fill:#008080;fill-rule:nonzero"
               id="path4" /><path
               d="M133.9,28.7L149.6,28.7L149.6,33.9L127.5,33.9L127.5,0.5L134,0.5L134,28.7L133.9,28.7Z"
               style="fill:#008080;fill-rule:nonzero"
               id="path5" /></g><g
             id="g8"
             style="fill:#008080"><path
               d="M77,75.7L92.7,75.7L92.7,81L70.5,81L70.5,47.5L77,47.5L77,75.7Z"
               style="fill:#008080;fill-rule:nonzero"
               id="path6" /><path
               d="M121.9,66.7C121.9,68.8 121.6,70.8 121.1,72.6C120.5,74.4 119.7,76 118.6,77.3C117.5,78.6 116.2,79.6 114.7,80.3C113.2,81 111.4,81.4 109.5,81.4C107.6,81.4 105.9,81 104.4,80.3C102.9,79.6 101.6,78.6 100.6,77.2C99.6,75.9 98.8,74.3 98.3,72.5C97.8,70.7 97.5,68.7 97.5,66.6L97.5,61.7C97.5,59.6 97.8,57.6 98.3,55.8C98.8,54 99.6,52.4 100.6,51.1C101.6,49.8 102.9,48.8 104.4,48C105.9,47.3 107.6,46.9 109.5,46.9C111.4,46.9 113.2,47.3 114.7,48C116.2,48.7 117.5,49.8 118.6,51.1C119.7,52.4 120.5,54 121.1,55.8C121.7,57.6 121.9,59.6 121.9,61.7L121.9,66.7ZM115.3,61.8C115.3,60.4 115.2,59.2 115,58C114.8,56.9 114.4,55.9 114,55C113.6,54.1 112.9,53.5 112.2,53.1C111.5,52.6 110.6,52.4 109.5,52.4C108.5,52.4 107.6,52.6 106.9,53.1C106.2,53.6 105.6,54.2 105.2,55C104.8,55.8 104.5,56.8 104.3,58C104.1,59.1 104,60.4 104,61.8L104,66.7C104,68 104.1,69.3 104.3,70.4C104.5,71.5 104.8,72.5 105.2,73.4C105.6,74.2 106.2,74.9 106.9,75.4C107.6,75.9 108.5,76.1 109.5,76.1C110.5,76.1 111.4,75.9 112.2,75.4C112.9,74.9 113.5,74.3 114,73.4C114.5,72.6 114.8,71.6 115,70.4C115.2,69.3 115.3,68 115.3,66.6L115.3,61.8Z"
               style="fill:#008080;fill-rule:nonzero"
               id="path7" /><path
               d="M150,77.1C149.6,77.6 149,78.1 148.3,78.6C147.6,79.1 146.7,79.6 145.7,80C144.7,80.4 143.6,80.8 142.4,81C141.2,81.3 139.9,81.4 138.4,81.4C136.5,81.4 134.8,81.1 133.3,80.4C131.8,79.7 130.5,78.8 129.4,77.5C128.3,76.2 127.5,74.7 126.9,72.8C126.3,71 126,68.9 126,66.5L126,62C126,59.7 126.3,57.6 126.9,55.7C127.5,53.9 128.4,52.3 129.5,51C130.6,49.7 131.9,48.7 133.4,48.1C134.9,47.4 136.5,47.1 138.2,47.1C140.1,47.1 141.7,47.3 143.1,47.8C144.5,48.3 145.7,49 146.6,49.9C147.6,50.8 148.3,51.9 148.9,53.2C149.4,54.5 149.8,55.9 150,57.5L143.7,57.5C143.5,55.8 143,54.5 142.1,53.6C141.3,52.7 140,52.3 138.3,52.3C137.5,52.3 136.7,52.5 136,52.9C135.3,53.3 134.7,53.9 134.2,54.7C133.7,55.5 133.3,56.5 133,57.7C132.7,58.9 132.5,60.3 132.5,61.9L132.5,66.5C132.5,69.6 133,72 134.1,73.7C135.1,75.4 136.7,76.2 138.8,76.2C139.3,76.2 139.8,76.2 140.3,76.1C140.8,76 141.2,75.9 141.7,75.8C142.1,75.7 142.5,75.5 142.8,75.3C143.1,75.1 143.4,74.9 143.5,74.7L143.5,68.6L138,68.6L138,63.8L150,63.8L150,77.1Z"
               style="fill:#008080;fill-rule:nonzero"
               id="path8" /></g><g
             id="g10"
             style="fill:#008080"><path
               d="M100,94.6L119.3,94.6L119.3,99.8L112.8,99.8L112.8,122.8L119.3,122.8L119.3,128L100,128L100,122.8L106.4,122.8L106.4,99.8L100,99.8L100,94.6Z"
               style="fill:#008080;fill-rule:nonzero"
               id="path9" /><path
               d="M149.1,128L142.7,128L133.4,106.4L133.4,128L126.9,128L126.9,94.6L133.4,94.6L142.6,116.1L142.6,94.6L149.1,94.6L149.1,128Z"
               style="fill:#008080;fill-rule:nonzero"
               id="path10" /></g></g><g
           id="g15"
           style="fill:#008080"><path
             d="M227.5,39.1L238.6,50.2C246.2,57.8 246.2,70.2 238.6,77.8C235.2,81.2 230.7,83.1 226.2,83.5L214.7,95C226,98.6 238.8,96 247.7,87.1C260.4,74.4 260.4,53.8 247.7,41.1L236.6,30L227.5,39.1Z"
             style="fill:#008080;fill-rule:nonzero"
             id="path11" /><path
             d="M206.8,0L188.4,0L213,24.6L222.2,15.4L206.8,0Z"
             style="fill:#008080;fill-rule:nonzero"
             id="path12" /><path
             d="M207,30.6L176.4,0L158,0L197.8,39.8C198.2,39.3 198.7,38.8 199.2,38.3L207,30.6Z"
             style="fill:#008080;fill-rule:nonzero"
             id="path13" /><path
             d="M176.4,128L232.6,71.8C236.9,67.5 236.9,60.5 232.6,56.2L221.5,45.1L213.7,52.9C213.2,53.4 212.8,53.9 212.4,54.4L222,64L158,128L176.4,128Z"
             style="fill:#008080;fill-rule:nonzero"
             id="path14" /><path
             d="M261.2,0L242.8,0L201.8,41C190.5,52.3 189.3,69.9 198.1,82.5L207.5,73.1C203.6,65.7 204.8,56.4 211,50.2L261.2,0Z"
             style="fill:#008080;fill-rule:nonzero"
             id="path15" /></g></g></g></g></svg>
